<svg width="24" height="24" viewBox="0 0 24 24" fill="none" xmlns="http://www.w3.org/2000/svg">
<path d="M18 6H15V4C15 2.9 14.1 2 13 2H6C4.9 2 4 2.9 4 4V22H10V19C10 18.45 10.45 18 11 18H13C13.55 18 14 18.45 14 19V22H20V8C20 6.9 19.1 6 18 6ZM11.5 14H7.5C6.95 14 6.5 13.55 6.5 13C6.5 12.45 6.95 12 7.5 12H11.5C12.05 12 12.5 12.45 12.5 13C12.5 13.55 12.05 14 11.5 14ZM11.5 10H7.5C6.95 10 6.5 9.55 6.5 9C6.5 8.45 6.95 8 7.5 8H11.5C12.05 8 12.5 8.45 12.5 9C12.5 9.55 12.05 10 11.5 10ZM11.5 6H7.5C6.95 6 6.5 5.55 6.5 5C6.5 4.45 6.95 4 7.5 4H11.5C12.05 4 12.5 4.45 12.5 5C12.5 5.55 12.05 6 11.5 6ZM17 10C16.45 10 16 9.55 16 9C16 8.45 16.45 8 17 8C17.55 8 18 8.45 18 9C18 9.55 17.55 10 17 10Z" fill="#0A3FFF"/>
<path d="M18 6H15V4C15 2.9 14.1 2 13 2H6C4.9 2 4 2.9 4 4V22H10V19C10 18.45 10.45 18 11 18H13C13.55 18 14 18.45 14 19V22H20V8C20 6.9 19.1 6 18 6ZM11.5 14H7.5C6.95 14 6.5 13.55 6.5 13C6.5 12.45 6.95 12 7.5 12H11.5C12.05 12 12.5 12.45 12.5 13C12.5 13.55 12.05 14 11.5 14ZM11.5 10H7.5C6.95 10 6.5 9.55 6.5 9C6.5 8.45 6.95 8 7.5 8H11.5C12.05 8 12.5 8.45 12.5 9C12.5 9.55 12.05 10 11.5 10ZM11.5 6H7.5C6.95 6 6.5 5.55 6.5 5C6.5 4.45 6.95 4 7.5 4H11.5C12.05 4 12.5 4.45 12.5 5C12.5 5.55 12.05 6 11.5 6ZM17 10C16.45 10 16 9.55 16 9C16 8.45 16.45 8 17 8C17.55 8 18 8.45 18 9C18 9.55 17.55 10 17 10Z" fill="black" fill-opacity="0.87"/>
</svg>
