<svg width="24" height="24" viewBox="0 0 24 24" fill="none" xmlns="http://www.w3.org/2000/svg">
<path d="M20.6899 15.24L18.2899 12.87V8.19C18.2899 4.77 15.4699 2 11.9999 2C8.52991 2 5.70991 4.77 5.70991 8.19V12.87L3.30991 15.24C2.64991 15.89 3.11991 17 4.04991 17H19.9499C20.8799 17 21.3499 15.89 20.6899 15.24Z" fill="#0A3FFF"/>
<path d="M20.6899 15.24L18.2899 12.87V8.19C18.2899 4.77 15.4699 2 11.9999 2C8.52991 2 5.70991 4.77 5.70991 8.19V12.87L3.30991 15.24C2.64991 15.89 3.11991 17 4.04991 17H19.9499C20.8799 17 21.3499 15.89 20.6899 15.24Z" fill="black" fill-opacity="0.87"/>
<path d="M15 19C15 20.66 13.66 22 12 22C10.34 22 9 20.66 9 19H15Z" fill="#0A3FFF"/>
<path d="M15 19C15 20.66 13.66 22 12 22C10.34 22 9 20.66 9 19H15Z" fill="black" fill-opacity="0.87"/>
</svg>
