<svg width="24" height="24" viewBox="0 0 24 24" fill="none" xmlns="http://www.w3.org/2000/svg">
<path d="M15.731 5.26657C16.0897 5.62199 16.0897 6.19824 15.731 6.55366L10.2171 12L15.731 17.4463C16.0897 17.8018 16.0897 18.378 15.731 18.7334C15.3724 19.0889 14.7909 19.0889 14.4322 18.7334L8.26898 12.6435C7.91034 12.2881 7.91034 11.7119 8.26898 11.3565L14.4322 5.26657C14.7909 4.91114 15.3724 4.91114 15.731 5.26657Z" fill="#0A3FFF"/>
<path d="M15.731 5.26657C16.0897 5.62199 16.0897 6.19824 15.731 6.55366L10.2171 12L15.731 17.4463C16.0897 17.8018 16.0897 18.378 15.731 18.7334C15.3724 19.0889 14.7909 19.0889 14.4322 18.7334L8.26898 12.6435C7.91034 12.2881 7.91034 11.7119 8.26898 11.3565L14.4322 5.26657C14.7909 4.91114 15.3724 4.91114 15.731 5.26657Z" fill="black" fill-opacity="0.87"/>
</svg>
