<svg width="24" height="24" viewBox="0 0 24 24" fill="none" xmlns="http://www.w3.org/2000/svg">
<path d="M8.26898 5.26657C7.91034 5.62199 7.91034 6.19824 8.26898 6.55366L13.7829 12L8.26898 17.4463C7.91034 17.8018 7.91034 18.378 8.26898 18.7334C8.62763 19.0889 9.20911 19.0889 9.56775 18.7334L15.731 12.6435C16.0897 12.2881 16.0897 11.7119 15.731 11.3565L9.56775 5.26657C9.20911 4.91114 8.62763 4.91114 8.26898 5.26657Z" fill="#0A3FFF"/>
<path d="M8.26898 5.26657C7.91034 5.62199 7.91034 6.19824 8.26898 6.55366L13.7829 12L8.26898 17.4463C7.91034 17.8018 7.91034 18.378 8.26898 18.7334C8.62763 19.0889 9.20911 19.0889 9.56775 18.7334L15.731 12.6435C16.0897 12.2881 16.0897 11.7119 15.731 11.3565L9.56775 5.26657C9.20911 4.91114 8.62763 4.91114 8.26898 5.26657Z" fill="black" fill-opacity="0.87"/>
</svg>
