<svg width="24" height="24" viewBox="0 0 24 24" fill="none" xmlns="http://www.w3.org/2000/svg">
<path d="M4.26898 5.26657C3.91034 5.62199 3.91034 6.19824 4.26898 6.55366L9.78286 12L4.26898 17.4463C3.91034 17.8018 3.91034 18.378 4.26898 18.7334C4.62763 19.0889 5.20911 19.0889 5.56775 18.7334L11.731 12.6435C12.0897 12.2881 12.0897 11.7119 11.731 11.3565L5.56775 5.26657C5.20911 4.91114 4.62763 4.91114 4.26898 5.26657Z" fill="#0A3FFF"/>
<path d="M4.26898 5.26657C3.91034 5.62199 3.91034 6.19824 4.26898 6.55366L9.78286 12L4.26898 17.4463C3.91034 17.8018 3.91034 18.378 4.26898 18.7334C4.62763 19.0889 5.20911 19.0889 5.56775 18.7334L11.731 12.6435C12.0897 12.2881 12.0897 11.7119 11.731 11.3565L5.56775 5.26657C5.20911 4.91114 4.62763 4.91114 4.26898 5.26657Z" fill="black" fill-opacity="0.87"/>
<path d="M12.269 5.26657C11.9103 5.62199 11.9103 6.19824 12.269 6.55366L17.7829 12L12.269 17.4463C11.9103 17.8018 11.9103 18.378 12.269 18.7334C12.6276 19.0889 13.2091 19.0889 13.5678 18.7334L19.731 12.6435C20.0897 12.2881 20.0897 11.7119 19.731 11.3565L13.5678 5.26657C13.2091 4.91114 12.6276 4.91114 12.269 5.26657Z" fill="#0A3FFF"/>
<path d="M12.269 5.26657C11.9103 5.62199 11.9103 6.19824 12.269 6.55366L17.7829 12L12.269 17.4463C11.9103 17.8018 11.9103 18.378 12.269 18.7334C12.6276 19.0889 13.2091 19.0889 13.5678 18.7334L19.731 12.6435C20.0897 12.2881 20.0897 11.7119 19.731 11.3565L13.5678 5.26657C13.2091 4.91114 12.6276 4.91114 12.269 5.26657Z" fill="black" fill-opacity="0.87"/>
</svg>
