<svg width="24" height="24" viewBox="0 0 24 24" fill="none" xmlns="http://www.w3.org/2000/svg">
<path d="M16.731 3.26657C17.0897 3.62199 17.0897 4.19824 16.731 4.55366L9.21714 12L16.731 19.4463C17.0897 19.8018 17.0897 20.378 16.731 20.7334C16.3724 21.0889 15.7909 21.0889 15.4322 20.7334L7.26898 12.6435C6.91034 12.2881 6.91034 11.7119 7.26898 11.3565L15.4322 3.26657C15.7909 2.91114 16.3724 2.91114 16.731 3.26657Z" fill="#0A3FFF"/>
<path d="M16.731 3.26657C17.0897 3.62199 17.0897 4.19824 16.731 4.55366L9.21714 12L16.731 19.4463C17.0897 19.8018 17.0897 20.378 16.731 20.7334C16.3724 21.0889 15.7909 21.0889 15.4322 20.7334L7.26898 12.6435C6.91034 12.2881 6.91034 11.7119 7.26898 11.3565L15.4322 3.26657C15.7909 2.91114 16.3724 2.91114 16.731 3.26657Z" fill="black" fill-opacity="0.87"/>
</svg>
