<svg width="24" height="24" viewBox="0 0 24 24" fill="none" xmlns="http://www.w3.org/2000/svg">
<path d="M3.26657 7.26898C3.62199 6.91034 4.19824 6.91034 4.55366 7.26898L12 14.7829L19.4463 7.26898C19.8018 6.91034 20.378 6.91034 20.7334 7.26898C21.0889 7.62763 21.0889 8.20911 20.7334 8.56775L12.6435 16.731C12.2881 17.0897 11.7119 17.0897 11.3565 16.731L3.26657 8.56775C2.91114 8.20911 2.91114 7.62763 3.26657 7.26898Z" fill="#0A3FFF"/>
<path d="M3.26657 7.26898C3.62199 6.91034 4.19824 6.91034 4.55366 7.26898L12 14.7829L19.4463 7.26898C19.8018 6.91034 20.378 6.91034 20.7334 7.26898C21.0889 7.62763 21.0889 8.20911 20.7334 8.56775L12.6435 16.731C12.2881 17.0897 11.7119 17.0897 11.3565 16.731L3.26657 8.56775C2.91114 8.20911 2.91114 7.62763 3.26657 7.26898Z" fill="black" fill-opacity="0.87"/>
</svg>
