<svg width="24" height="24" viewBox="0 0 24 24" fill="none" xmlns="http://www.w3.org/2000/svg">
<path d="M7.26898 3.26657C6.91034 3.62199 6.91034 4.19824 7.26898 4.55366L14.7829 12L7.26898 19.4463C6.91034 19.8018 6.91034 20.378 7.26898 20.7334C7.62763 21.0889 8.20911 21.0889 8.56775 20.7334L16.731 12.6435C17.0897 12.2881 17.0897 11.7119 16.731 11.3565L8.56775 3.26657C8.20911 2.91114 7.62763 2.91114 7.26898 3.26657Z" fill="#0A3FFF"/>
<path d="M7.26898 3.26657C6.91034 3.62199 6.91034 4.19824 7.26898 4.55366L14.7829 12L7.26898 19.4463C6.91034 19.8018 6.91034 20.378 7.26898 20.7334C7.62763 21.0889 8.20911 21.0889 8.56775 20.7334L16.731 12.6435C17.0897 12.2881 17.0897 11.7119 16.731 11.3565L8.56775 3.26657C8.20911 2.91114 7.62763 2.91114 7.26898 3.26657Z" fill="black" fill-opacity="0.87"/>
</svg>
