<svg width="24" height="24" viewBox="0 0 24 24" fill="none" xmlns="http://www.w3.org/2000/svg">
<path d="M3.26657 16.731C3.62199 17.0897 4.19824 17.0897 4.55366 16.731L12 9.21714L19.4463 16.731C19.8018 17.0897 20.378 17.0897 20.7334 16.731C21.0889 16.3724 21.0889 15.7909 20.7334 15.4322L12.6435 7.26898C12.2881 6.91034 11.7119 6.91034 11.3565 7.26898L3.26657 15.4322C2.91114 15.7909 2.91114 16.3724 3.26657 16.731Z" fill="#0A3FFF"/>
<path d="M3.26657 16.731C3.62199 17.0897 4.19824 17.0897 4.55366 16.731L12 9.21714L19.4463 16.731C19.8018 17.0897 20.378 17.0897 20.7334 16.731C21.0889 16.3724 21.0889 15.7909 20.7334 15.4322L12.6435 7.26898C12.2881 6.91034 11.7119 6.91034 11.3565 7.26898L3.26657 15.4322C2.91114 15.7909 2.91114 16.3724 3.26657 16.731Z" fill="black" fill-opacity="0.87"/>
</svg>
