<svg width="24" height="24" viewBox="0 0 24 24" fill="none" xmlns="http://www.w3.org/2000/svg">
<path d="M11.731 5.26657C12.0897 5.62199 12.0897 6.19824 11.731 6.55366L6.21714 12L11.731 17.4463C12.0897 17.8018 12.0897 18.378 11.731 18.7334C11.3724 19.0889 10.7909 19.0889 10.4322 18.7334L4.26898 12.6435C3.91034 12.2881 3.91034 11.7119 4.26898 11.3565L10.4322 5.26657C10.7909 4.91114 11.3724 4.91114 11.731 5.26657Z" fill="#0A3FFF"/>
<path d="M11.731 5.26657C12.0897 5.62199 12.0897 6.19824 11.731 6.55366L6.21714 12L11.731 17.4463C12.0897 17.8018 12.0897 18.378 11.731 18.7334C11.3724 19.0889 10.7909 19.0889 10.4322 18.7334L4.26898 12.6435C3.91034 12.2881 3.91034 11.7119 4.26898 11.3565L10.4322 5.26657C10.7909 4.91114 11.3724 4.91114 11.731 5.26657Z" fill="black" fill-opacity="0.87"/>
<path d="M19.731 5.26657C20.0897 5.62199 20.0897 6.19824 19.731 6.55366L14.2171 12L19.731 17.4463C20.0897 17.8018 20.0897 18.378 19.731 18.7334C19.3724 19.0889 18.7909 19.0889 18.4322 18.7334L12.269 12.6435C11.9103 12.2881 11.9103 11.7119 12.269 11.3565L18.4322 5.26657C18.7909 4.91114 19.3724 4.91114 19.731 5.26657Z" fill="#0A3FFF"/>
<path d="M19.731 5.26657C20.0897 5.62199 20.0897 6.19824 19.731 6.55366L14.2171 12L19.731 17.4463C20.0897 17.8018 20.0897 18.378 19.731 18.7334C19.3724 19.0889 18.7909 19.0889 18.4322 18.7334L12.269 12.6435C11.9103 12.2881 11.9103 11.7119 12.269 11.3565L18.4322 5.26657C18.7909 4.91114 19.3724 4.91114 19.731 5.26657Z" fill="black" fill-opacity="0.87"/>
</svg>
