<svg width="24" height="24" viewBox="0 0 24 24" fill="none" xmlns="http://www.w3.org/2000/svg">
<path d="M5.26657 8.26898C5.62199 7.91034 6.19824 7.91034 6.55366 8.26898L12 13.7829L17.4463 8.26898C17.8018 7.91034 18.378 7.91034 18.7334 8.26898C19.0889 8.62763 19.0889 9.20911 18.7334 9.56775L12.6435 15.731C12.2881 16.0897 11.7119 16.0897 11.3565 15.731L5.26657 9.56775C4.91114 9.20911 4.91114 8.62763 5.26657 8.26898Z" fill="#0A3FFF"/>
<path d="M5.26657 8.26898C5.62199 7.91034 6.19824 7.91034 6.55366 8.26898L12 13.7829L17.4463 8.26898C17.8018 7.91034 18.378 7.91034 18.7334 8.26898C19.0889 8.62763 19.0889 9.20911 18.7334 9.56775L12.6435 15.731C12.2881 16.0897 11.7119 16.0897 11.3565 15.731L5.26657 9.56775C4.91114 9.20911 4.91114 8.62763 5.26657 8.26898Z" fill="black" fill-opacity="0.87"/>
</svg>
