<svg width="24" height="24" viewBox="0 0 24 24" fill="none" xmlns="http://www.w3.org/2000/svg">
<path d="M5.26657 15.731C5.62199 16.0897 6.19824 16.0897 6.55366 15.731L12 10.2171L17.4463 15.731C17.8018 16.0897 18.378 16.0897 18.7334 15.731C19.0889 15.3724 19.0889 14.7909 18.7334 14.4322L12.6435 8.26898C12.2881 7.91034 11.7119 7.91034 11.3565 8.26898L5.26657 14.4322C4.91114 14.7909 4.91114 15.3724 5.26657 15.731Z" fill="#0A3FFF"/>
<path d="M5.26657 15.731C5.62199 16.0897 6.19824 16.0897 6.55366 15.731L12 10.2171L17.4463 15.731C17.8018 16.0897 18.378 16.0897 18.7334 15.731C19.0889 15.3724 19.0889 14.7909 18.7334 14.4322L12.6435 8.26898C12.2881 7.91034 11.7119 7.91034 11.3565 8.26898L5.26657 14.4322C4.91114 14.7909 4.91114 15.3724 5.26657 15.731Z" fill="black" fill-opacity="0.87"/>
</svg>
