<svg width="24" height="24" viewBox="0 0 24 24" fill="none" xmlns="http://www.w3.org/2000/svg">
<path d="M12.6 2.20049C12.4269 2.07067 12.2164 2.00049 12 2.00049C11.7836 2.00049 11.5731 2.07067 11.4 2.20049C10.9834 2.51967 10.5992 2.87906 10.253 3.27349C9.73 3.86249 9 4.85549 9 6.00049C9 6.79614 9.31607 7.5592 9.87868 8.12181C10.4413 8.68442 11.2044 9.00049 12 9.00049H6C5.20435 9.00049 4.44129 9.31656 3.87868 9.87917C3.31607 10.4418 3 11.2048 3 12.0005V14.0005C3 15.2365 4.411 15.9425 5.4 15.2005L6.067 14.7005C6.2401 14.5707 6.45063 14.5005 6.667 14.5005C6.88337 14.5005 7.0939 14.5707 7.267 14.7005L7.533 14.9005C8.05229 15.29 8.68389 15.5005 9.333 15.5005C9.98211 15.5005 10.6137 15.29 11.133 14.9005L11.4 14.7005C11.5731 14.5707 11.7836 14.5005 12 14.5005C12.2164 14.5005 12.4269 14.5707 12.6 14.7005L12.867 14.9005C13.3863 15.29 14.0179 15.5005 14.667 15.5005C15.3161 15.5005 15.9477 15.29 16.467 14.9005L16.733 14.7005C16.9061 14.5707 17.1166 14.5005 17.333 14.5005C17.5494 14.5005 17.7599 14.5707 17.933 14.7005L18.6 15.2005C19.589 15.9425 21 15.2365 21 14.0005V12.0005C21 11.2048 20.6839 10.4418 20.1213 9.87917C19.5587 9.31656 18.7956 9.00049 18 9.00049H12C12.7956 9.00049 13.5587 8.68442 14.1213 8.12181C14.6839 7.5592 15 6.79614 15 6.00049C15 4.85549 14.27 3.86249 13.747 3.27349C13.401 2.88349 13.017 2.51349 12.6 2.20049ZM4 17.4155V20.0005C4 20.5309 4.21071 21.0396 4.58579 21.4147C4.96086 21.7898 5.46957 22.0005 6 22.0005H18C18.5304 22.0005 19.0391 21.7898 19.4142 21.4147C19.7893 21.0396 20 20.5309 20 20.0005V17.4155C19.7673 17.4995 19.5172 17.5239 19.2726 17.4863C19.028 17.4488 18.7968 17.3505 18.6 17.2005L17.933 16.7005C17.7599 16.5707 17.5494 16.5005 17.333 16.5005C17.1166 16.5005 16.9061 16.5707 16.733 16.7005L16.467 16.9005C15.9477 17.29 15.3161 17.5005 14.667 17.5005C14.0179 17.5005 13.3863 17.29 12.867 16.9005L12.6 16.7005C12.4269 16.5707 12.2164 16.5005 12 16.5005C11.7836 16.5005 11.5731 16.5707 11.4 16.7005L11.133 16.9005C10.6137 17.29 9.98211 17.5005 9.333 17.5005C8.68389 17.5005 8.05229 17.29 7.533 16.9005L7.267 16.7005C7.0939 16.5707 6.88337 16.5005 6.667 16.5005C6.45063 16.5005 6.2401 16.5707 6.067 16.7005L5.4 17.2005C5.20322 17.3505 4.97196 17.4488 4.72739 17.4863C4.48282 17.5239 4.23273 17.4995 4 17.4155Z" fill="#0A3FFF"/>
<path d="M12.6 2.20049C12.4269 2.07067 12.2164 2.00049 12 2.00049C11.7836 2.00049 11.5731 2.07067 11.4 2.20049C10.9834 2.51967 10.5992 2.87906 10.253 3.27349C9.73 3.86249 9 4.85549 9 6.00049C9 6.79614 9.31607 7.5592 9.87868 8.12181C10.4413 8.68442 11.2044 9.00049 12 9.00049H6C5.20435 9.00049 4.44129 9.31656 3.87868 9.87917C3.31607 10.4418 3 11.2048 3 12.0005V14.0005C3 15.2365 4.411 15.9425 5.4 15.2005L6.067 14.7005C6.2401 14.5707 6.45063 14.5005 6.667 14.5005C6.88337 14.5005 7.0939 14.5707 7.267 14.7005L7.533 14.9005C8.05229 15.29 8.68389 15.5005 9.333 15.5005C9.98211 15.5005 10.6137 15.29 11.133 14.9005L11.4 14.7005C11.5731 14.5707 11.7836 14.5005 12 14.5005C12.2164 14.5005 12.4269 14.5707 12.6 14.7005L12.867 14.9005C13.3863 15.29 14.0179 15.5005 14.667 15.5005C15.3161 15.5005 15.9477 15.29 16.467 14.9005L16.733 14.7005C16.9061 14.5707 17.1166 14.5005 17.333 14.5005C17.5494 14.5005 17.7599 14.5707 17.933 14.7005L18.6 15.2005C19.589 15.9425 21 15.2365 21 14.0005V12.0005C21 11.2048 20.6839 10.4418 20.1213 9.87917C19.5587 9.31656 18.7956 9.00049 18 9.00049H12C12.7956 9.00049 13.5587 8.68442 14.1213 8.12181C14.6839 7.5592 15 6.79614 15 6.00049C15 4.85549 14.27 3.86249 13.747 3.27349C13.401 2.88349 13.017 2.51349 12.6 2.20049ZM4 17.4155V20.0005C4 20.5309 4.21071 21.0396 4.58579 21.4147C4.96086 21.7898 5.46957 22.0005 6 22.0005H18C18.5304 22.0005 19.0391 21.7898 19.4142 21.4147C19.7893 21.0396 20 20.5309 20 20.0005V17.4155C19.7673 17.4995 19.5172 17.5239 19.2726 17.4863C19.028 17.4488 18.7968 17.3505 18.6 17.2005L17.933 16.7005C17.7599 16.5707 17.5494 16.5005 17.333 16.5005C17.1166 16.5005 16.9061 16.5707 16.733 16.7005L16.467 16.9005C15.9477 17.29 15.3161 17.5005 14.667 17.5005C14.0179 17.5005 13.3863 17.29 12.867 16.9005L12.6 16.7005C12.4269 16.5707 12.2164 16.5005 12 16.5005C11.7836 16.5005 11.5731 16.5707 11.4 16.7005L11.133 16.9005C10.6137 17.29 9.98211 17.5005 9.333 17.5005C8.68389 17.5005 8.05229 17.29 7.533 16.9005L7.267 16.7005C7.0939 16.5707 6.88337 16.5005 6.667 16.5005C6.45063 16.5005 6.2401 16.5707 6.067 16.7005L5.4 17.2005C5.20322 17.3505 4.97196 17.4488 4.72739 17.4863C4.48282 17.5239 4.23273 17.4995 4 17.4155Z" fill="black" fill-opacity="0.87"/>
</svg>
