<svg width="24" height="24" viewBox="0 0 24 24" fill="none" xmlns="http://www.w3.org/2000/svg">
<path d="M9.24852 2.93264C9.24852 2.41756 9.66608 2 10.1812 2H13.8054C14.3205 2 14.7381 2.41756 14.7381 2.93264C14.7381 3.44773 14.3205 3.86528 13.8054 3.86528H10.1812C9.66608 3.86528 9.24852 3.44773 9.24852 2.93264Z" fill="#0A3FFF"/>
<path d="M9.24852 2.93264C9.24852 2.41756 9.66608 2 10.1812 2H13.8054C14.3205 2 14.7381 2.41756 14.7381 2.93264C14.7381 3.44773 14.3205 3.86528 13.8054 3.86528H10.1812C9.66608 3.86528 9.24852 3.44773 9.24852 2.93264Z" fill="black" fill-opacity="0.8"/>
<path d="M9.24852 2.93264C9.24852 2.41756 9.66608 2 10.1812 2H13.8054C14.3205 2 14.7381 2.41756 14.7381 2.93264C14.7381 3.44773 14.3205 3.86528 13.8054 3.86528H10.1812C9.66608 3.86528 9.24852 3.44773 9.24852 2.93264Z" fill="white" fill-opacity="0.3"/>
<path d="M7.48912 2.91782C7.50472 3.43266 7.1 3.86268 6.58515 3.87828C5.69728 3.90518 5.32741 3.97553 5.06393 4.11103L5.05451 4.11588C4.65464 4.31581 4.32198 4.64954 4.09629 5.07994C3.96166 5.34325 3.89168 5.7136 3.86486 6.59857C3.84926 7.11342 3.41925 7.51814 2.9044 7.50254C2.38955 7.48694 1.98483 7.05692 2.00044 6.54207C2.02722 5.65809 2.09111 4.90041 2.43884 4.22427L2.44168 4.21875C2.83266 3.47079 3.43744 2.84019 4.21568 2.44978C4.8906 2.10422 5.64678 2.04057 6.52866 2.01385C7.0435 1.99825 7.47352 2.40297 7.48912 2.91782Z" fill="#0A3FFF"/>
<path d="M7.48912 2.91782C7.50472 3.43266 7.1 3.86268 6.58515 3.87828C5.69728 3.90518 5.32741 3.97553 5.06393 4.11103L5.05451 4.11588C4.65464 4.31581 4.32198 4.64954 4.09629 5.07994C3.96166 5.34325 3.89168 5.7136 3.86486 6.59857C3.84926 7.11342 3.41925 7.51814 2.9044 7.50254C2.38955 7.48694 1.98483 7.05692 2.00044 6.54207C2.02722 5.65809 2.09111 4.90041 2.43884 4.22427L2.44168 4.21875C2.83266 3.47079 3.43744 2.84019 4.21568 2.44978C4.8906 2.10422 5.64678 2.04057 6.52866 2.01385C7.0435 1.99825 7.47352 2.40297 7.48912 2.91782Z" fill="black" fill-opacity="0.8"/>
<path d="M7.48912 2.91782C7.50472 3.43266 7.1 3.86268 6.58515 3.87828C5.69728 3.90518 5.32741 3.97553 5.06393 4.11103L5.05451 4.11588C4.65464 4.31581 4.32198 4.64954 4.09629 5.07994C3.96166 5.34325 3.89168 5.7136 3.86486 6.59857C3.84926 7.11342 3.41925 7.51814 2.9044 7.50254C2.38955 7.48694 1.98483 7.05692 2.00044 6.54207C2.02722 5.65809 2.09111 4.90041 2.43884 4.22427L2.44168 4.21875C2.83266 3.47079 3.43744 2.84019 4.21568 2.44978C4.8906 2.10422 5.64678 2.04057 6.52866 2.01385C7.0435 1.99825 7.47352 2.40297 7.48912 2.91782Z" fill="white" fill-opacity="0.3"/>
<path d="M16.4975 2.91782C16.5131 2.40297 16.9431 1.99825 17.4579 2.01385C18.3398 2.04057 19.096 2.10422 19.7709 2.44978C20.5491 2.84019 21.1539 3.4708 21.5449 4.21876L21.5478 4.22426C21.8955 4.9004 21.9594 5.65809 21.9861 6.54207C22.0017 7.05692 21.597 7.48694 21.0822 7.50254C20.5673 7.51814 20.1373 7.11342 20.1217 6.59857C20.0949 5.7136 20.0249 5.34326 19.8903 5.07995C19.6646 4.64955 19.332 4.31576 18.9321 4.11582L18.9226 4.11109C18.6591 3.97558 18.2893 3.90518 17.4014 3.87828C16.8866 3.86268 16.4819 3.43266 16.4975 2.91782Z" fill="#0A3FFF"/>
<path d="M16.4975 2.91782C16.5131 2.40297 16.9431 1.99825 17.4579 2.01385C18.3398 2.04057 19.096 2.10422 19.7709 2.44978C20.5491 2.84019 21.1539 3.4708 21.5449 4.21876L21.5478 4.22426C21.8955 4.9004 21.9594 5.65809 21.9861 6.54207C22.0017 7.05692 21.597 7.48694 21.0822 7.50254C20.5673 7.51814 20.1373 7.11342 20.1217 6.59857C20.0949 5.7136 20.0249 5.34326 19.8903 5.07995C19.6646 4.64955 19.332 4.31576 18.9321 4.11582L18.9226 4.11109C18.6591 3.97558 18.2893 3.90518 17.4014 3.87828C16.8866 3.86268 16.4819 3.43266 16.4975 2.91782Z" fill="black" fill-opacity="0.8"/>
<path d="M16.4975 2.91782C16.5131 2.40297 16.9431 1.99825 17.4579 2.01385C18.3398 2.04057 19.096 2.10422 19.7709 2.44978C20.5491 2.84019 21.1539 3.4708 21.5449 4.21876L21.5478 4.22426C21.8955 4.9004 21.9594 5.65809 21.9861 6.54207C22.0017 7.05692 21.597 7.48694 21.0822 7.50254C20.5673 7.51814 20.1373 7.11342 20.1217 6.59857C20.0949 5.7136 20.0249 5.34326 19.8903 5.07995C19.6646 4.64955 19.332 4.31576 18.9321 4.11582L18.9226 4.11109C18.6591 3.97558 18.2893 3.90518 17.4014 3.87828C16.8866 3.86268 16.4819 3.43266 16.4975 2.91782Z" fill="white" fill-opacity="0.3"/>
<path d="M2.93265 9.24851C3.44773 9.24851 3.86529 9.66607 3.86529 10.1812V13.8054C3.86529 14.3205 3.44773 14.7381 2.93265 14.7381C2.41757 14.7381 2.00001 14.3205 2.00001 13.8054V10.1812C2.00001 9.66607 2.41757 9.24851 2.93265 9.24851Z" fill="#0A3FFF"/>
<path d="M2.93265 9.24851C3.44773 9.24851 3.86529 9.66607 3.86529 10.1812V13.8054C3.86529 14.3205 3.44773 14.7381 2.93265 14.7381C2.41757 14.7381 2.00001 14.3205 2.00001 13.8054V10.1812C2.00001 9.66607 2.41757 9.24851 2.93265 9.24851Z" fill="black" fill-opacity="0.8"/>
<path d="M2.93265 9.24851C3.44773 9.24851 3.86529 9.66607 3.86529 10.1812V13.8054C3.86529 14.3205 3.44773 14.7381 2.93265 14.7381C2.41757 14.7381 2.00001 14.3205 2.00001 13.8054V10.1812C2.00001 9.66607 2.41757 9.24851 2.93265 9.24851Z" fill="white" fill-opacity="0.3"/>
<path d="M21.0539 9.24851C21.569 9.24851 21.9866 9.66607 21.9866 10.1812V13.8054C21.9866 14.3205 21.569 14.7381 21.0539 14.7381C20.5388 14.7381 20.1213 14.3205 20.1213 13.8054V10.1812C20.1213 9.66607 20.5388 9.24851 21.0539 9.24851Z" fill="#0A3FFF"/>
<path d="M21.0539 9.24851C21.569 9.24851 21.9866 9.66607 21.9866 10.1812V13.8054C21.9866 14.3205 21.569 14.7381 21.0539 14.7381C20.5388 14.7381 20.1213 14.3205 20.1213 13.8054V10.1812C20.1213 9.66607 20.5388 9.24851 21.0539 9.24851Z" fill="black" fill-opacity="0.8"/>
<path d="M21.0539 9.24851C21.569 9.24851 21.9866 9.66607 21.9866 10.1812V13.8054C21.9866 14.3205 21.569 14.7381 21.0539 14.7381C20.5388 14.7381 20.1213 14.3205 20.1213 13.8054V10.1812C20.1213 9.66607 20.5388 9.24851 21.0539 9.24851Z" fill="white" fill-opacity="0.3"/>
<path d="M21.0956 16.4975C21.6104 16.5131 22.0152 16.9431 21.9996 17.4579C21.9728 18.3419 21.9089 19.0996 21.5612 19.7757L21.5583 19.7812C21.1673 20.5292 20.5625 21.1599 19.7841 21.5503C19.1093 21.8958 18.3531 21.9594 17.4713 21.9861C16.9565 22.0017 16.5265 21.597 16.5109 21.0822C16.4953 20.5673 16.9 20.1373 17.4148 20.1217C18.3027 20.0948 18.6726 20.0245 18.9361 19.889L18.9455 19.8841C19.3454 19.6842 19.678 19.3504 19.9037 18.92C20.0383 18.6567 20.1083 18.2864 20.1351 17.4014C20.1507 16.8866 20.5808 16.4819 21.0956 16.4975Z" fill="#0A3FFF"/>
<path d="M21.0956 16.4975C21.6104 16.5131 22.0152 16.9431 21.9996 17.4579C21.9728 18.3419 21.9089 19.0996 21.5612 19.7757L21.5583 19.7812C21.1673 20.5292 20.5625 21.1599 19.7841 21.5503C19.1093 21.8958 18.3531 21.9594 17.4713 21.9861C16.9565 22.0017 16.5265 21.597 16.5109 21.0822C16.4953 20.5673 16.9 20.1373 17.4148 20.1217C18.3027 20.0948 18.6726 20.0245 18.9361 19.889L18.9455 19.8841C19.3454 19.6842 19.678 19.3504 19.9037 18.92C20.0383 18.6567 20.1083 18.2864 20.1351 17.4014C20.1507 16.8866 20.5808 16.4819 21.0956 16.4975Z" fill="black" fill-opacity="0.8"/>
<path d="M21.0956 16.4975C21.6104 16.5131 22.0152 16.9431 21.9996 17.4579C21.9728 18.3419 21.9089 19.0996 21.5612 19.7757L21.5583 19.7812C21.1673 20.5292 20.5625 21.1599 19.7841 21.5503C19.1093 21.8958 18.3531 21.9594 17.4713 21.9861C16.9565 22.0017 16.5265 21.597 16.5109 21.0822C16.4953 20.5673 16.9 20.1373 17.4148 20.1217C18.3027 20.0948 18.6726 20.0245 18.9361 19.889L18.9455 19.8841C19.3454 19.6842 19.678 19.3504 19.9037 18.92C20.0383 18.6567 20.1083 18.2864 20.1351 17.4014C20.1507 16.8866 20.5808 16.4819 21.0956 16.4975Z" fill="white" fill-opacity="0.3"/>
<path d="M2.9044 16.5109C3.41925 16.4953 3.84926 16.9 3.86486 17.4148C3.89177 18.3027 3.96211 18.6726 4.09762 18.9361L4.10246 18.9455C4.3024 19.3454 4.63613 19.678 5.06653 19.9037C5.32984 20.0383 5.70018 20.1083 6.58515 20.1351C7.1 20.1507 7.50472 20.5808 7.48912 21.0956C7.47352 21.6104 7.0435 22.0152 6.52866 21.9996C5.64468 21.9728 4.887 21.9089 4.21085 21.5612L4.20534 21.5583C3.45739 21.1673 2.82677 20.5625 2.43636 19.7843C2.09081 19.1094 2.02716 18.3532 2.00044 17.4713C1.98483 16.9565 2.38955 16.5265 2.9044 16.5109Z" fill="#0A3FFF"/>
<path d="M2.9044 16.5109C3.41925 16.4953 3.84926 16.9 3.86486 17.4148C3.89177 18.3027 3.96211 18.6726 4.09762 18.9361L4.10246 18.9455C4.3024 19.3454 4.63613 19.678 5.06653 19.9037C5.32984 20.0383 5.70018 20.1083 6.58515 20.1351C7.1 20.1507 7.50472 20.5808 7.48912 21.0956C7.47352 21.6104 7.0435 22.0152 6.52866 21.9996C5.64468 21.9728 4.887 21.9089 4.21085 21.5612L4.20534 21.5583C3.45739 21.1673 2.82677 20.5625 2.43636 19.7843C2.09081 19.1094 2.02716 18.3532 2.00044 17.4713C1.98483 16.9565 2.38955 16.5265 2.9044 16.5109Z" fill="black" fill-opacity="0.8"/>
<path d="M2.9044 16.5109C3.41925 16.4953 3.84926 16.9 3.86486 17.4148C3.89177 18.3027 3.96211 18.6726 4.09762 18.9361L4.10246 18.9455C4.3024 19.3454 4.63613 19.678 5.06653 19.9037C5.32984 20.0383 5.70018 20.1083 6.58515 20.1351C7.1 20.1507 7.50472 20.5808 7.48912 21.0956C7.47352 21.6104 7.0435 22.0152 6.52866 21.9996C5.64468 21.9728 4.887 21.9089 4.21085 21.5612L4.20534 21.5583C3.45739 21.1673 2.82677 20.5625 2.43636 19.7843C2.09081 19.1094 2.02716 18.3532 2.00044 17.4713C1.98483 16.9565 2.38955 16.5265 2.9044 16.5109Z" fill="white" fill-opacity="0.3"/>
<path d="M9.24852 21.0539C9.24852 20.5388 9.66608 20.1213 10.1812 20.1213H13.8054C14.3205 20.1213 14.7381 20.5388 14.7381 21.0539C14.7381 21.569 14.3205 21.9866 13.8054 21.9866H10.1812C9.66608 21.9866 9.24852 21.569 9.24852 21.0539Z" fill="#0A3FFF"/>
<path d="M9.24852 21.0539C9.24852 20.5388 9.66608 20.1213 10.1812 20.1213H13.8054C14.3205 20.1213 14.7381 20.5388 14.7381 21.0539C14.7381 21.569 14.3205 21.9866 13.8054 21.9866H10.1812C9.66608 21.9866 9.24852 21.569 9.24852 21.0539Z" fill="black" fill-opacity="0.8"/>
<path d="M9.24852 21.0539C9.24852 20.5388 9.66608 20.1213 10.1812 20.1213H13.8054C14.3205 20.1213 14.7381 20.5388 14.7381 21.0539C14.7381 21.569 14.3205 21.9866 13.8054 21.9866H10.1812C9.66608 21.9866 9.24852 21.569 9.24852 21.0539Z" fill="white" fill-opacity="0.3"/>
</svg>
