<svg width="16" height="16" viewBox="0 0 16 16" fill="none" xmlns="http://www.w3.org/2000/svg">
<path d="M6.16568 1.95526C6.16568 1.61187 6.44405 1.3335 6.78744 1.3335H9.20361C9.547 1.3335 9.82537 1.61187 9.82537 1.95526C9.82537 2.29865 9.547 2.57702 9.20361 2.57702H6.78744C6.44405 2.57702 6.16568 2.29865 6.16568 1.95526Z" fill="#0A3FFF"/>
<path d="M6.16568 1.95526C6.16568 1.61187 6.44405 1.3335 6.78744 1.3335H9.20361C9.547 1.3335 9.82537 1.61187 9.82537 1.95526C9.82537 2.29865 9.547 2.57702 9.20361 2.57702H6.78744C6.44405 2.57702 6.16568 2.29865 6.16568 1.95526Z" fill="black" fill-opacity="0.8"/>
<path d="M6.16568 1.95526C6.16568 1.61187 6.44405 1.3335 6.78744 1.3335H9.20361C9.547 1.3335 9.82537 1.61187 9.82537 1.95526C9.82537 2.29865 9.547 2.57702 9.20361 2.57702H6.78744C6.44405 2.57702 6.16568 2.29865 6.16568 1.95526Z" fill="white" fill-opacity="0.3"/>
<path d="M4.99275 1.94537C5.00315 2.28861 4.73334 2.57528 4.39011 2.58568C3.79819 2.60362 3.55161 2.65052 3.37596 2.74085L3.36968 2.74408C3.1031 2.87737 2.88132 3.09986 2.73086 3.38679C2.64111 3.56233 2.59446 3.80923 2.57658 4.39921C2.56618 4.74244 2.2795 5.01225 1.93627 5.00185C1.59304 4.99145 1.32323 4.70478 1.33363 4.36155C1.35148 3.77222 1.39408 3.2671 1.6259 2.81634L1.62779 2.81266C1.88844 2.31403 2.29163 1.89362 2.81046 1.63335C3.26041 1.40298 3.76452 1.36055 4.35244 1.34273C4.69567 1.33233 4.98235 1.60214 4.99275 1.94537Z" fill="#0A3FFF"/>
<path d="M4.99275 1.94537C5.00315 2.28861 4.73334 2.57528 4.39011 2.58568C3.79819 2.60362 3.55161 2.65052 3.37596 2.74085L3.36968 2.74408C3.1031 2.87737 2.88132 3.09986 2.73086 3.38679C2.64111 3.56233 2.59446 3.80923 2.57658 4.39921C2.56618 4.74244 2.2795 5.01225 1.93627 5.00185C1.59304 4.99145 1.32323 4.70478 1.33363 4.36155C1.35148 3.77222 1.39408 3.2671 1.6259 2.81634L1.62779 2.81266C1.88844 2.31403 2.29163 1.89362 2.81046 1.63335C3.26041 1.40298 3.76452 1.36055 4.35244 1.34273C4.69567 1.33233 4.98235 1.60214 4.99275 1.94537Z" fill="black" fill-opacity="0.8"/>
<path d="M4.99275 1.94537C5.00315 2.28861 4.73334 2.57528 4.39011 2.58568C3.79819 2.60362 3.55161 2.65052 3.37596 2.74085L3.36968 2.74408C3.1031 2.87737 2.88132 3.09986 2.73086 3.38679C2.64111 3.56233 2.59446 3.80923 2.57658 4.39921C2.56618 4.74244 2.2795 5.01225 1.93627 5.00185C1.59304 4.99145 1.32323 4.70478 1.33363 4.36155C1.35148 3.77222 1.39408 3.2671 1.6259 2.81634L1.62779 2.81266C1.88844 2.31403 2.29163 1.89362 2.81046 1.63335C3.26041 1.40298 3.76452 1.36055 4.35244 1.34273C4.69567 1.33233 4.98235 1.60214 4.99275 1.94537Z" fill="white" fill-opacity="0.3"/>
<path d="M10.9983 1.94537C11.0087 1.60214 11.2954 1.33233 11.6386 1.34273C12.2265 1.36055 12.7306 1.40298 13.1806 1.63335C13.6994 1.89362 14.1026 2.31403 14.3633 2.81267L14.3652 2.81633C14.597 3.2671 14.6396 3.77222 14.6574 4.36155C14.6678 4.70478 14.398 4.99145 14.0548 5.00185C13.7116 5.01225 13.4249 4.74244 13.4145 4.39921C13.3966 3.80923 13.35 3.56233 13.2602 3.38679C13.1097 3.09986 12.888 2.87734 12.6214 2.74405L12.6151 2.74089C12.4394 2.65055 12.1929 2.60362 11.601 2.58568C11.2577 2.57528 10.9879 2.28861 10.9983 1.94537Z" fill="#0A3FFF"/>
<path d="M10.9983 1.94537C11.0087 1.60214 11.2954 1.33233 11.6386 1.34273C12.2265 1.36055 12.7306 1.40298 13.1806 1.63335C13.6994 1.89362 14.1026 2.31403 14.3633 2.81267L14.3652 2.81633C14.597 3.2671 14.6396 3.77222 14.6574 4.36155C14.6678 4.70478 14.398 4.99145 14.0548 5.00185C13.7116 5.01225 13.4249 4.74244 13.4145 4.39921C13.3966 3.80923 13.35 3.56233 13.2602 3.38679C13.1097 3.09986 12.888 2.87734 12.6214 2.74405L12.6151 2.74089C12.4394 2.65055 12.1929 2.60362 11.601 2.58568C11.2577 2.57528 10.9879 2.28861 10.9983 1.94537Z" fill="black" fill-opacity="0.8"/>
<path d="M10.9983 1.94537C11.0087 1.60214 11.2954 1.33233 11.6386 1.34273C12.2265 1.36055 12.7306 1.40298 13.1806 1.63335C13.6994 1.89362 14.1026 2.31403 14.3633 2.81267L14.3652 2.81633C14.597 3.2671 14.6396 3.77222 14.6574 4.36155C14.6678 4.70478 14.398 4.99145 14.0548 5.00185C13.7116 5.01225 13.4249 4.74244 13.4145 4.39921C13.3966 3.80923 13.35 3.56233 13.2602 3.38679C13.1097 3.09986 12.888 2.87734 12.6214 2.74405L12.6151 2.74089C12.4394 2.65055 12.1929 2.60362 11.601 2.58568C11.2577 2.57528 10.9879 2.28861 10.9983 1.94537Z" fill="white" fill-opacity="0.3"/>
<path d="M1.9551 6.16584C2.29849 6.16584 2.57686 6.44421 2.57686 6.7876V9.20377C2.57686 9.54716 2.29849 9.82553 1.9551 9.82553C1.61171 9.82553 1.33334 9.54716 1.33334 9.20377V6.7876C1.33334 6.44421 1.61171 6.16584 1.9551 6.16584Z" fill="#0A3FFF"/>
<path d="M1.9551 6.16584C2.29849 6.16584 2.57686 6.44421 2.57686 6.7876V9.20377C2.57686 9.54716 2.29849 9.82553 1.9551 9.82553C1.61171 9.82553 1.33334 9.54716 1.33334 9.20377V6.7876C1.33334 6.44421 1.61171 6.16584 1.9551 6.16584Z" fill="black" fill-opacity="0.8"/>
<path d="M1.9551 6.16584C2.29849 6.16584 2.57686 6.44421 2.57686 6.7876V9.20377C2.57686 9.54716 2.29849 9.82553 1.9551 9.82553C1.61171 9.82553 1.33334 9.54716 1.33334 9.20377V6.7876C1.33334 6.44421 1.61171 6.16584 1.9551 6.16584Z" fill="white" fill-opacity="0.3"/>
<path d="M14.036 6.16584C14.3793 6.16584 14.6577 6.44421 14.6577 6.7876V9.20377C14.6577 9.54716 14.3793 9.82553 14.036 9.82553C13.6926 9.82553 13.4142 9.54716 13.4142 9.20377V6.7876C13.4142 6.44421 13.6926 6.16584 14.036 6.16584Z" fill="#0A3FFF"/>
<path d="M14.036 6.16584C14.3793 6.16584 14.6577 6.44421 14.6577 6.7876V9.20377C14.6577 9.54716 14.3793 9.82553 14.036 9.82553C13.6926 9.82553 13.4142 9.54716 13.4142 9.20377V6.7876C13.4142 6.44421 13.6926 6.16584 14.036 6.16584Z" fill="black" fill-opacity="0.8"/>
<path d="M14.036 6.16584C14.3793 6.16584 14.6577 6.44421 14.6577 6.7876V9.20377C14.6577 9.54716 14.3793 9.82553 14.036 9.82553C13.6926 9.82553 13.4142 9.54716 13.4142 9.20377V6.7876C13.4142 6.44421 13.6926 6.16584 14.036 6.16584Z" fill="white" fill-opacity="0.3"/>
<path d="M14.0637 10.9985C14.407 11.0089 14.6768 11.2955 14.6664 11.6388C14.6485 12.2281 14.6059 12.7332 14.3741 13.184L14.3722 13.1877C14.1115 13.6863 13.7083 14.1068 13.1894 14.367C12.7395 14.5974 12.2354 14.6398 11.6476 14.6576C11.3043 14.668 11.0177 14.3982 11.0073 14.0549C10.9969 13.7117 11.2667 13.425 11.6099 13.4146C12.2018 13.3967 12.4484 13.3498 12.624 13.2595L12.6303 13.2562C12.8969 13.1229 13.1187 12.9005 13.2691 12.6135C13.3589 12.438 13.4055 12.1911 13.4234 11.6011C13.4338 11.2579 13.7205 10.9881 14.0637 10.9985Z" fill="#0A3FFF"/>
<path d="M14.0637 10.9985C14.407 11.0089 14.6768 11.2955 14.6664 11.6388C14.6485 12.2281 14.6059 12.7332 14.3741 13.184L14.3722 13.1877C14.1115 13.6863 13.7083 14.1068 13.1894 14.367C12.7395 14.5974 12.2354 14.6398 11.6476 14.6576C11.3043 14.668 11.0177 14.3982 11.0073 14.0549C10.9969 13.7117 11.2667 13.425 11.6099 13.4146C12.2018 13.3967 12.4484 13.3498 12.624 13.2595L12.6303 13.2562C12.8969 13.1229 13.1187 12.9005 13.2691 12.6135C13.3589 12.438 13.4055 12.1911 13.4234 11.6011C13.4338 11.2579 13.7205 10.9881 14.0637 10.9985Z" fill="black" fill-opacity="0.8"/>
<path d="M14.0637 10.9985C14.407 11.0089 14.6768 11.2955 14.6664 11.6388C14.6485 12.2281 14.6059 12.7332 14.3741 13.184L14.3722 13.1877C14.1115 13.6863 13.7083 14.1068 13.1894 14.367C12.7395 14.5974 12.2354 14.6398 11.6476 14.6576C11.3043 14.668 11.0177 14.3982 11.0073 14.0549C10.9969 13.7117 11.2667 13.425 11.6099 13.4146C12.2018 13.3967 12.4484 13.3498 12.624 13.2595L12.6303 13.2562C12.8969 13.1229 13.1187 12.9005 13.2691 12.6135C13.3589 12.438 13.4055 12.1911 13.4234 11.6011C13.4338 11.2579 13.7205 10.9881 14.0637 10.9985Z" fill="white" fill-opacity="0.3"/>
<path d="M1.93627 11.0074C2.2795 10.997 2.56618 11.2668 2.57658 11.6101C2.59452 12.202 2.64141 12.4486 2.73175 12.6242L2.73498 12.6305C2.86827 12.8971 3.09076 13.1188 3.37769 13.2693C3.55323 13.3591 3.80012 13.4057 4.39011 13.4236C4.73334 13.434 5.00315 13.7207 4.99275 14.0639C4.98235 14.4071 4.69567 14.6769 4.35244 14.6665C3.76312 14.6487 3.258 14.6061 2.80724 14.3743L2.80356 14.3724C2.30493 14.1117 1.88452 13.7085 1.62424 13.1897C1.39387 12.7398 1.35144 12.2356 1.33363 11.6477C1.32323 11.3045 1.59304 11.0178 1.93627 11.0074Z" fill="#0A3FFF"/>
<path d="M1.93627 11.0074C2.2795 10.997 2.56618 11.2668 2.57658 11.6101C2.59452 12.202 2.64141 12.4486 2.73175 12.6242L2.73498 12.6305C2.86827 12.8971 3.09076 13.1188 3.37769 13.2693C3.55323 13.3591 3.80012 13.4057 4.39011 13.4236C4.73334 13.434 5.00315 13.7207 4.99275 14.0639C4.98235 14.4071 4.69567 14.6769 4.35244 14.6665C3.76312 14.6487 3.258 14.6061 2.80724 14.3743L2.80356 14.3724C2.30493 14.1117 1.88452 13.7085 1.62424 13.1897C1.39387 12.7398 1.35144 12.2356 1.33363 11.6477C1.32323 11.3045 1.59304 11.0178 1.93627 11.0074Z" fill="black" fill-opacity="0.8"/>
<path d="M1.93627 11.0074C2.2795 10.997 2.56618 11.2668 2.57658 11.6101C2.59452 12.202 2.64141 12.4486 2.73175 12.6242L2.73498 12.6305C2.86827 12.8971 3.09076 13.1188 3.37769 13.2693C3.55323 13.3591 3.80012 13.4057 4.39011 13.4236C4.73334 13.434 5.00315 13.7207 4.99275 14.0639C4.98235 14.4071 4.69567 14.6769 4.35244 14.6665C3.76312 14.6487 3.258 14.6061 2.80724 14.3743L2.80356 14.3724C2.30493 14.1117 1.88452 13.7085 1.62424 13.1897C1.39387 12.7398 1.35144 12.2356 1.33363 11.6477C1.32323 11.3045 1.59304 11.0178 1.93627 11.0074Z" fill="white" fill-opacity="0.3"/>
<path d="M6.16568 14.0361C6.16568 13.6927 6.44405 13.4144 6.78744 13.4144H9.20361C9.547 13.4144 9.82537 13.6927 9.82537 14.0361C9.82537 14.3795 9.547 14.6579 9.20361 14.6579H6.78744C6.44405 14.6579 6.16568 14.3795 6.16568 14.0361Z" fill="#0A3FFF"/>
<path d="M6.16568 14.0361C6.16568 13.6927 6.44405 13.4144 6.78744 13.4144H9.20361C9.547 13.4144 9.82537 13.6927 9.82537 14.0361C9.82537 14.3795 9.547 14.6579 9.20361 14.6579H6.78744C6.44405 14.6579 6.16568 14.3795 6.16568 14.0361Z" fill="black" fill-opacity="0.8"/>
<path d="M6.16568 14.0361C6.16568 13.6927 6.44405 13.4144 6.78744 13.4144H9.20361C9.547 13.4144 9.82537 13.6927 9.82537 14.0361C9.82537 14.3795 9.547 14.6579 9.20361 14.6579H6.78744C6.44405 14.6579 6.16568 14.3795 6.16568 14.0361Z" fill="white" fill-opacity="0.3"/>
</svg>
