<svg width="24" height="24" viewBox="0 0 24 24" fill="none" xmlns="http://www.w3.org/2000/svg">
<path d="M19 11H5C4.45 11 4 11.45 4 12V19C4 20.1 4.9 21 6 21H18C19.1 21 20 20.1 20 19V12C20 11.45 19.55 11 19 11ZM18 18C18 18.55 17.55 19 17 19H15C14.45 19 14 18.55 14 18V16C14 15.45 14.45 15 15 15H17C17.55 15 18 15.45 18 16V18Z" fill="#0A3FFF"/>
<path d="M19 11H5C4.45 11 4 11.45 4 12V19C4 20.1 4.9 21 6 21H18C19.1 21 20 20.1 20 19V12C20 11.45 19.55 11 19 11ZM18 18C18 18.55 17.55 19 17 19H15C14.45 19 14 18.55 14 18V16C14 15.45 14.45 15 15 15H17C17.55 15 18 15.45 18 16V18Z" fill="black" fill-opacity="0.87"/>
<path d="M18 5H17V4C17 3.45 16.55 3 16 3C15.45 3 15 3.45 15 4V5H9V4C9 3.45 8.55 3 8 3C7.45 3 7 3.45 7 4V5H6C4.9 5 4 5.9 4 7V8C4 8.55 4.45 9 5 9H19C19.55 9 20 8.55 20 8V7C20 5.9 19.1 5 18 5Z" fill="#0A3FFF"/>
<path d="M18 5H17V4C17 3.45 16.55 3 16 3C15.45 3 15 3.45 15 4V5H9V4C9 3.45 8.55 3 8 3C7.45 3 7 3.45 7 4V5H6C4.9 5 4 5.9 4 7V8C4 8.55 4.45 9 5 9H19C19.55 9 20 8.55 20 8V7C20 5.9 19.1 5 18 5Z" fill="black" fill-opacity="0.87"/>
</svg>
