<svg width="24" height="24" viewBox="0 0 24 24" fill="none" xmlns="http://www.w3.org/2000/svg">
<path d="M18 2C19 2 20 3 20 4V21C20 21.55 19.55 22 19 22H8C5.79 22 4 20.21 4 18V4C4 3 5 2 6 2H18ZM8 16C6.9 16 6 16.9 6 18C6 19.1 6.9 20 8 20H18V16H8ZM8 8C7.45 8 7 8.45 7 9C7 9.55 7.45 10 8 10H14C14.55 10 15 9.55 15 9C15 8.45 14.55 8 14 8H8ZM8 4C7.45 4 7 4.45 7 5C7 5.55 7.45 6 8 6H16C16.55 6 17 5.55 17 5C17 4.45 16.55 4 16 4H8Z" fill="#0A3FFF"/>
<path d="M18 2C19 2 20 3 20 4V21C20 21.55 19.55 22 19 22H8C5.79 22 4 20.21 4 18V4C4 3 5 2 6 2H18ZM8 16C6.9 16 6 16.9 6 18C6 19.1 6.9 20 8 20H18V16H8ZM8 8C7.45 8 7 8.45 7 9C7 9.55 7.45 10 8 10H14C14.55 10 15 9.55 15 9C15 8.45 14.55 8 14 8H8ZM8 4C7.45 4 7 4.45 7 5C7 5.55 7.45 6 8 6H16C16.55 6 17 5.55 17 5C17 4.45 16.55 4 16 4H8Z" fill="black" fill-opacity="0.87"/>
</svg>
