<svg width="24" height="24" viewBox="0 0 24 24" fill="none" xmlns="http://www.w3.org/2000/svg">
<path d="M18.2799 4.29443C18.6733 3.90113 19.3114 3.90119 19.7047 4.29443C20.0981 4.68777 20.0981 5.3259 19.7047 5.71924L13.4235 11.9985L19.7047 18.2798C20.098 18.6731 20.098 19.3103 19.7047 19.7036C19.3114 20.0969 18.6733 20.0969 18.2799 19.7036L11.9997 13.4233L5.71939 19.7036C5.32604 20.0969 4.68794 20.0969 4.29459 19.7036C3.90145 19.3103 3.90139 18.6731 4.29459 18.2798L10.5749 11.9985L4.29459 5.71924C3.90123 5.3259 3.90123 4.68777 4.29459 4.29443C4.68794 3.90112 5.32604 3.9011 5.71939 4.29443L11.9997 10.5747L18.2799 4.29443Z" fill="#0A3FFF"/>
<path d="M18.2799 4.29443C18.6733 3.90113 19.3114 3.90119 19.7047 4.29443C20.0981 4.68777 20.0981 5.3259 19.7047 5.71924L13.4235 11.9985L19.7047 18.2798C20.098 18.6731 20.098 19.3103 19.7047 19.7036C19.3114 20.0969 18.6733 20.0969 18.2799 19.7036L11.9997 13.4233L5.71939 19.7036C5.32604 20.0969 4.68794 20.0969 4.29459 19.7036C3.90145 19.3103 3.90139 18.6731 4.29459 18.2798L10.5749 11.9985L4.29459 5.71924C3.90123 5.3259 3.90123 4.68777 4.29459 4.29443C4.68794 3.90112 5.32604 3.9011 5.71939 4.29443L11.9997 10.5747L18.2799 4.29443Z" fill="black" fill-opacity="0.87"/>
</svg>
