<svg width="24" height="24" viewBox="0 0 24 24" fill="none" xmlns="http://www.w3.org/2000/svg">
<path d="M10.8066 2C10.2896 2 9.79569 2.20431 9.42969 2.57031L9 3H4C3.86749 2.99813 3.73592 3.02261 3.61296 3.07202C3.48999 3.12143 3.37807 3.1948 3.2837 3.28784C3.18933 3.38088 3.11439 3.49176 3.06324 3.61401C3.01209 3.73627 2.98576 3.86747 2.98576 4C2.98576 4.13253 3.01209 4.26373 3.06324 4.38599C3.11439 4.50824 3.18933 4.61912 3.2837 4.71216C3.37807 4.8052 3.48999 4.87857 3.61296 4.92798C3.73592 4.97739 3.86749 5.00187 4 5H20C20.1325 5.00187 20.2641 4.97739 20.387 4.92798C20.51 4.87857 20.6219 4.8052 20.7163 4.71216C20.8107 4.61912 20.8856 4.50824 20.9368 4.38599C20.9879 4.26373 21.0142 4.13253 21.0142 4C21.0142 3.86747 20.9879 3.73627 20.9368 3.61401C20.8856 3.49176 20.8107 3.38088 20.7163 3.28784C20.6219 3.1948 20.51 3.12143 20.387 3.07202C20.2641 3.02261 20.1325 2.99813 20 3H15L14.5703 2.57031C14.2053 2.20431 13.7104 2 13.1934 2H10.8066ZM4.36523 7L5.89258 20.2637C6.02458 21.2537 6.877 22 7.875 22H16.123C17.121 22 17.9744 21.2549 18.1074 20.2559L19.6348 7H4.36523Z" fill="#0A3FFF"/>
<path d="M10.8066 2C10.2896 2 9.79569 2.20431 9.42969 2.57031L9 3H4C3.86749 2.99813 3.73592 3.02261 3.61296 3.07202C3.48999 3.12143 3.37807 3.1948 3.2837 3.28784C3.18933 3.38088 3.11439 3.49176 3.06324 3.61401C3.01209 3.73627 2.98576 3.86747 2.98576 4C2.98576 4.13253 3.01209 4.26373 3.06324 4.38599C3.11439 4.50824 3.18933 4.61912 3.2837 4.71216C3.37807 4.8052 3.48999 4.87857 3.61296 4.92798C3.73592 4.97739 3.86749 5.00187 4 5H20C20.1325 5.00187 20.2641 4.97739 20.387 4.92798C20.51 4.87857 20.6219 4.8052 20.7163 4.71216C20.8107 4.61912 20.8856 4.50824 20.9368 4.38599C20.9879 4.26373 21.0142 4.13253 21.0142 4C21.0142 3.86747 20.9879 3.73627 20.9368 3.61401C20.8856 3.49176 20.8107 3.38088 20.7163 3.28784C20.6219 3.1948 20.51 3.12143 20.387 3.07202C20.2641 3.02261 20.1325 2.99813 20 3H15L14.5703 2.57031C14.2053 2.20431 13.7104 2 13.1934 2H10.8066ZM4.36523 7L5.89258 20.2637C6.02458 21.2537 6.877 22 7.875 22H16.123C17.121 22 17.9744 21.2549 18.1074 20.2559L19.6348 7H4.36523Z" fill="black" fill-opacity="0.87"/>
</svg>
