<svg width="24" height="24" viewBox="0 0 24 24" fill="none" xmlns="http://www.w3.org/2000/svg">
<g clip-path="url(#clip0_929_6694)">
<path d="M20 21H4C3.45 21 3 20.55 3 20V16C3 15.45 3.45 15 4 15C4.55 15 5 15.45 5 16V19H19V16C19 15.45 19.45 15 20 15C20.55 15 21 15.45 21 16V20C21 20.55 20.55 21 20 21Z" fill="#0A3FFF"/>
<path d="M20 21H4C3.45 21 3 20.55 3 20V16C3 15.45 3.45 15 4 15C4.55 15 5 15.45 5 16V19H19V16C19 15.45 19.45 15 20 15C20.55 15 21 15.45 21 16V20C21 20.55 20.55 21 20 21Z" fill="black" fill-opacity="0.87"/>
<path d="M16.71 11.29C16.32 10.9 15.69 10.9 15.3 11.29L13.01 13.58V4C13.01 3.45 12.56 3 12.01 3C11.46 3 11.01 3.45 11.01 4V13.59L8.71999 11.3C8.32999 10.91 7.69999 10.91 7.30999 11.3C6.91999 11.69 6.91999 12.32 7.30999 12.71L11.31 16.71C11.4 16.8 11.51 16.88 11.64 16.93C11.76 16.98 11.89 17.01 12.02 17.01C12.15 17.01 12.28 16.98 12.4 16.93C12.52 16.88 12.63 16.81 12.73 16.71L16.73 12.71C17.12 12.32 17.12 11.69 16.73 11.3L16.71 11.29Z" fill="#0A3FFF"/>
<path d="M16.71 11.29C16.32 10.9 15.69 10.9 15.3 11.29L13.01 13.58V4C13.01 3.45 12.56 3 12.01 3C11.46 3 11.01 3.45 11.01 4V13.59L8.71999 11.3C8.32999 10.91 7.69999 10.91 7.30999 11.3C6.91999 11.69 6.91999 12.32 7.30999 12.71L11.31 16.71C11.4 16.8 11.51 16.88 11.64 16.93C11.76 16.98 11.89 17.01 12.02 17.01C12.15 17.01 12.28 16.98 12.4 16.93C12.52 16.88 12.63 16.81 12.73 16.71L16.73 12.71C17.12 12.32 17.12 11.69 16.73 11.3L16.71 11.29Z" fill="black" fill-opacity="0.87"/>
</g>
<defs>
<clipPath id="clip0_929_6694">
<rect width="18" height="18" fill="white" transform="translate(3 3)"/>
</clipPath>
</defs>
</svg>
