<svg width="24" height="24" viewBox="0 0 24 24" fill="none" xmlns="http://www.w3.org/2000/svg">
<path d="M20.1988 17C20.6607 17 20.9493 17.5 20.7184 17.9L19.506 20C19.3442 20.28 19.117 20.5167 18.8437 20.6896C18.5705 20.8626 18.2593 20.9667 17.937 20.993L17.773 21H6.226C5.976 20.9993 5.73733 20.955 5.51 20.867C5.42201 20.8286 5.387 20.7222 5.43498 20.6391L7.36181 17.3001C7.46897 17.1144 7.66708 17 7.88149 17H20.1988ZM8.11019 3.77364C8.32287 3.49971 8.72387 3.59343 8.89724 3.89379L10.6718 6.96803C10.779 7.15366 10.779 7.38234 10.6718 7.56796L4.51437 18.2343C4.28349 18.6342 3.70628 18.6344 3.47523 18.2345L2.184 16C2.00846 15.696 1.91605 15.3511 1.91605 15C1.91605 14.6489 2.00846 14.304 2.184 14L7.958 4C8.00395 3.92046 8.05485 3.84492 8.11019 3.77364ZM14.309 3C14.6324 2.99984 14.951 3.07809 15.2375 3.22804C15.524 3.378 15.7698 3.59519 15.954 3.861L16.04 4L21.814 14C21.963 14.258 22.05 14.54 22.074 14.828C22.0784 14.9217 22.0036 15 21.9098 15H17.9644C17.75 15 17.552 14.8856 17.4448 14.7L11.2096 3.89999C10.9787 3.49999 11.2673 3 11.7292 3H14.309ZM11.4804 10.1678C11.7114 9.76784 12.2886 9.76784 12.5196 10.1678L14.7903 14.1C15.0212 14.5 14.7326 15 14.2707 15H9.72932C9.26742 15 8.97875 14.5 9.20973 14.1L11.4804 10.1678Z" fill="#0A3FFF"/>
<path d="M20.1988 17C20.6607 17 20.9493 17.5 20.7184 17.9L19.506 20C19.3442 20.28 19.117 20.5167 18.8437 20.6896C18.5705 20.8626 18.2593 20.9667 17.937 20.993L17.773 21H6.226C5.976 20.9993 5.73733 20.955 5.51 20.867C5.42201 20.8286 5.387 20.7222 5.43498 20.6391L7.36181 17.3001C7.46897 17.1144 7.66708 17 7.88149 17H20.1988ZM8.11019 3.77364C8.32287 3.49971 8.72387 3.59343 8.89724 3.89379L10.6718 6.96803C10.779 7.15366 10.779 7.38234 10.6718 7.56796L4.51437 18.2343C4.28349 18.6342 3.70628 18.6344 3.47523 18.2345L2.184 16C2.00846 15.696 1.91605 15.3511 1.91605 15C1.91605 14.6489 2.00846 14.304 2.184 14L7.958 4C8.00395 3.92046 8.05485 3.84492 8.11019 3.77364ZM14.309 3C14.6324 2.99984 14.951 3.07809 15.2375 3.22804C15.524 3.378 15.7698 3.59519 15.954 3.861L16.04 4L21.814 14C21.963 14.258 22.05 14.54 22.074 14.828C22.0784 14.9217 22.0036 15 21.9098 15H17.9644C17.75 15 17.552 14.8856 17.4448 14.7L11.2096 3.89999C10.9787 3.49999 11.2673 3 11.7292 3H14.309ZM11.4804 10.1678C11.7114 9.76784 12.2886 9.76784 12.5196 10.1678L14.7903 14.1C15.0212 14.5 14.7326 15 14.2707 15H9.72932C9.26742 15 8.97875 14.5 9.20973 14.1L11.4804 10.1678Z" fill="black" fill-opacity="0.87"/>
</svg>
