<svg width="24" height="24" viewBox="0 0 24 24" fill="none" xmlns="http://www.w3.org/2000/svg">
<path d="M12 3C12 2.44772 11.5523 2 11 2H5C4.44772 2 4 2.44772 4 3V21C4 21.5523 4.44772 22 5 22H19C19.5523 22 20 21.5523 20 21V11C20 10.4477 19.5523 10 19 10H13C12.4477 10 12 9.55228 12 9V3Z" fill="#0A3FFF"/>
<path d="M12 3C12 2.44772 11.5523 2 11 2H5C4.44772 2 4 2.44772 4 3V21C4 21.5523 4.44772 22 5 22H19C19.5523 22 20 21.5523 20 21V11C20 10.4477 19.5523 10 19 10H13C12.4477 10 12 9.55228 12 9V3Z" fill="black" fill-opacity="0.87"/>
<path d="M14 7V2.60355C14 2.38083 14.2693 2.26929 14.4268 2.42678L19.5732 7.57322C19.7307 7.73071 19.6192 8 19.3964 8H15C14.4477 8 14 7.55228 14 7Z" fill="#0A3FFF"/>
<path d="M14 7V2.60355C14 2.38083 14.2693 2.26929 14.4268 2.42678L19.5732 7.57322C19.7307 7.73071 19.6192 8 19.3964 8H15C14.4477 8 14 7.55228 14 7Z" fill="black" fill-opacity="0.87"/>
</svg>
