<svg width="24" height="24" viewBox="0 0 24 24" fill="none" xmlns="http://www.w3.org/2000/svg">
<path d="M20 13H4C3.45 13 3 12.55 3 12C3 11.45 3.45 11 4 11H20C20.55 11 21 11.45 21 12C21 12.55 20.55 13 20 13Z" fill="#859FFF"/>
<path d="M20 19H4C3.45 19 3 18.55 3 18C3 17.45 3.45 17 4 17H20C20.55 17 21 17.45 21 18C21 18.55 20.55 19 20 19Z" fill="#859FFF"/>
<path d="M20 7H4C3.45 7 3 6.55 3 6C3 5.45 3.45 5 4 5H20C20.55 5 21 5.45 21 6C21 6.55 20.55 7 20 7Z" fill="#859FFF"/>
<path d="M16 9C15.45 9 15 8.55 15 8V4C15 3.45 15.45 3 16 3C16.55 3 17 3.45 17 4V8C17 8.55 16.55 9 16 9Z" fill="#5F83FF"/>
<path d="M16 9C15.45 9 15 8.55 15 8V4C15 3.45 15.45 3 16 3C16.55 3 17 3.45 17 4V8C17 8.55 16.55 9 16 9Z" fill="black" fill-opacity="0.2"/>
<path d="M16 21C15.45 21 15 20.55 15 20V16C15 15.45 15.45 15 16 15C16.55 15 17 15.45 17 16V20C17 20.55 16.55 21 16 21Z" fill="#5F83FF"/>
<path d="M16 21C15.45 21 15 20.55 15 20V16C15 15.45 15.45 15 16 15C16.55 15 17 15.45 17 16V20C17 20.55 16.55 21 16 21Z" fill="black" fill-opacity="0.2"/>
<path d="M8 15C7.45 15 7 14.55 7 14V10C7 9.45 7.45 9 8 9C8.55 9 9 9.45 9 10V14C9 14.55 8.55 15 8 15Z" fill="#5F83FF"/>
<path d="M8 15C7.45 15 7 14.55 7 14V10C7 9.45 7.45 9 8 9C8.55 9 9 9.45 9 10V14C9 14.55 8.55 15 8 15Z" fill="black" fill-opacity="0.2"/>
</svg>
