<svg width="24" height="24" viewBox="0 0 24 24" fill="none" xmlns="http://www.w3.org/2000/svg">
<path d="M10.13 10.03C10.1 9.78 10.08 9.52 10.08 9.25C10.08 7.85 10.52 6.56 11.25 5.51C10.46 4.3 9.14 3.5 7.64 3.5C5.22 3.5 3.25 5.59 3.25 8.16C3.25 10.15 4.44 11.84 6.1 12.5C7.05 11.16 8.48 10.24 10.12 10.03H10.13Z" fill="#0A3FFF"/>
<path d="M10.13 10.03C10.1 9.78 10.08 9.52 10.08 9.25C10.08 7.85 10.52 6.56 11.25 5.51C10.46 4.3 9.14 3.5 7.64 3.5C5.22 3.5 3.25 5.59 3.25 8.16C3.25 10.15 4.44 11.84 6.1 12.5C7.05 11.16 8.48 10.24 10.12 10.03H10.13Z" fill="black" fill-opacity="0.87"/>
<path d="M10.9 11.5C9.91 11.5801 9.02 11.9705 8.31 12.5912C8.04 12.8315 7.79 13.0918 7.58 13.3821C7.41 13.6224 7.26 13.8826 7.14 14.1529C6.89 14.7136 6.75 15.3242 6.75 15.985C6.75 18.4778 8.77 20.5 11.25 20.5C13.73 20.5 15.75 18.4778 15.75 15.985C15.75 15.7247 15.72 15.4644 15.67 15.2141C14.07 14.9839 12.67 14.1329 11.73 12.9016C11.56 12.6913 11.41 12.4611 11.28 12.2208C11.15 11.9905 11.02 11.7503 10.92 11.5H10.9Z" fill="#0A3FFF"/>
<path d="M10.9 11.5C9.91 11.5801 9.02 11.9705 8.31 12.5912C8.04 12.8315 7.79 13.0918 7.58 13.3821C7.41 13.6224 7.26 13.8826 7.14 14.1529C6.89 14.7136 6.75 15.3242 6.75 15.985C6.75 18.4778 8.77 20.5 11.25 20.5C13.73 20.5 15.75 18.4778 15.75 15.985C15.75 15.7247 15.72 15.4644 15.67 15.2141C14.07 14.9839 12.67 14.1329 11.73 12.9016C11.56 12.6913 11.41 12.4611 11.28 12.2208C11.15 11.9905 11.02 11.7503 10.92 11.5H10.9Z" fill="black" fill-opacity="0.87"/>
<path d="M16.25 13.5C18.7353 13.5 20.75 11.4853 20.75 9C20.75 6.51472 18.7353 4.5 16.25 4.5C13.7647 4.5 11.75 6.51472 11.75 9C11.75 11.4853 13.7647 13.5 16.25 13.5Z" fill="#0A3FFF"/>
<path d="M16.25 13.5C18.7353 13.5 20.75 11.4853 20.75 9C20.75 6.51472 18.7353 4.5 16.25 4.5C13.7647 4.5 11.75 6.51472 11.75 9C11.75 11.4853 13.7647 13.5 16.25 13.5Z" fill="black" fill-opacity="0.87"/>
</svg>
