<svg width="24" height="24" viewBox="0 0 24 24" fill="none" xmlns="http://www.w3.org/2000/svg">
<path d="M4 20C3.45 20 2.97933 19.8043 2.588 19.413C2.19667 19.0217 2.00067 18.5507 2 18V6C2 5.45 2.196 4.97933 2.588 4.588C2.98 4.19667 3.45067 4.00067 4 4H20C20.55 4 21.021 4.196 21.413 4.588C21.805 4.98 22.0007 5.45067 22 6V18C22 18.55 21.8043 19.021 21.413 19.413C21.0217 19.805 20.5507 20.0007 20 20H4ZM4 17.4C4 17.7314 4.26863 18 4.6 18H13.9C14.2314 18 14.5 17.7314 14.5 17.4V15.1C14.5 14.7686 14.2314 14.5 13.9 14.5H4.6C4.26863 14.5 4 14.7686 4 15.1V17.4ZM16.5 17.4C16.5 17.7314 16.7686 18 17.1 18H19.4C19.7314 18 20 17.7314 20 17.4V9.6C20 9.26863 19.7314 9 19.4 9H17.1C16.7686 9 16.5 9.26863 16.5 9.6V17.4ZM4 11.9C4 12.2314 4.26863 12.5 4.6 12.5H13.9C14.2314 12.5 14.5 12.2314 14.5 11.9V9.6C14.5 9.26863 14.2314 9 13.9 9H4.6C4.26863 9 4 9.26863 4 9.6V11.9Z" fill="#0A3FFF"/>
<path d="M4 20C3.45 20 2.97933 19.8043 2.588 19.413C2.19667 19.0217 2.00067 18.5507 2 18V6C2 5.45 2.196 4.97933 2.588 4.588C2.98 4.19667 3.45067 4.00067 4 4H20C20.55 4 21.021 4.196 21.413 4.588C21.805 4.98 22.0007 5.45067 22 6V18C22 18.55 21.8043 19.021 21.413 19.413C21.0217 19.805 20.5507 20.0007 20 20H4ZM4 17.4C4 17.7314 4.26863 18 4.6 18H13.9C14.2314 18 14.5 17.7314 14.5 17.4V15.1C14.5 14.7686 14.2314 14.5 13.9 14.5H4.6C4.26863 14.5 4 14.7686 4 15.1V17.4ZM16.5 17.4C16.5 17.7314 16.7686 18 17.1 18H19.4C19.7314 18 20 17.7314 20 17.4V9.6C20 9.26863 19.7314 9 19.4 9H17.1C16.7686 9 16.5 9.26863 16.5 9.6V17.4ZM4 11.9C4 12.2314 4.26863 12.5 4.6 12.5H13.9C14.2314 12.5 14.5 12.2314 14.5 11.9V9.6C14.5 9.26863 14.2314 9 13.9 9H4.6C4.26863 9 4 9.26863 4 9.6V11.9Z" fill="black" fill-opacity="0.87"/>
</svg>
