<svg width="24" height="24" viewBox="0 0 24 24" fill="none" xmlns="http://www.w3.org/2000/svg">
<path d="M20.34 9.98567L13.36 3.53583C12.59 2.82139 11.4 2.82139 10.63 3.53583L3.66 9.98567C3.24 10.3727 3 10.9085 3 11.4542V18.9162C3 20.0673 4.01 21 5.25 21H9.98V16.5546C9.98 16.2767 10.2 16.0584 10.48 16.0584H13.48C13.76 16.0584 13.98 16.2767 13.98 16.5546V21H18.75C19.99 21 21 20.0673 21 18.9162V11.4542C21 10.8986 20.76 10.3727 20.34 9.98567Z" fill="#0A3FFF"/>
<path d="M20.34 9.98567L13.36 3.53583C12.59 2.82139 11.4 2.82139 10.63 3.53583L3.66 9.98567C3.24 10.3727 3 10.9085 3 11.4542V18.9162C3 20.0673 4.01 21 5.25 21H9.98V16.5546C9.98 16.2767 10.2 16.0584 10.48 16.0584H13.48C13.76 16.0584 13.98 16.2767 13.98 16.5546V21H18.75C19.99 21 21 20.0673 21 18.9162V11.4542C21 10.8986 20.76 10.3727 20.34 9.98567Z" fill="black" fill-opacity="0.87"/>
</svg>
