<svg width="24" height="24" viewBox="0 0 24 24" fill="none" xmlns="http://www.w3.org/2000/svg">
<circle cx="12" cy="12" r="9" stroke="#0A3FFF" stroke-width="2"/>
<circle cx="12" cy="12" r="9" stroke="black" stroke-opacity="0.87" stroke-width="2"/>
<path d="M13 8C13 8.55228 12.5523 9 12 9C11.4477 9 11 8.55228 11 8C11 7.44772 11.4477 7 12 7C12.5523 7 13 7.44772 13 8Z" fill="#0A3FFF"/>
<path d="M13 8C13 8.55228 12.5523 9 12 9C11.4477 9 11 8.55228 11 8C11 7.44772 11.4477 7 12 7C12.5523 7 13 7.44772 13 8Z" fill="black" fill-opacity="0.87"/>
<rect x="11" y="10" width="2" height="7" rx="1" fill="#0A3FFF"/>
<rect x="11" y="10" width="2" height="7" rx="1" fill="black" fill-opacity="0.87"/>
</svg>
