<svg width="24" height="24" viewBox="0 0 24 24" fill="none" xmlns="http://www.w3.org/2000/svg">
<path d="M20 5H4C2.9 5 2 5.9 2 7V17C2 18.1 2.9 19 4 19H20C21.1 19 22 18.1 22 17V7C22 5.9 21.1 5 20 5ZM9 13H5C4.45 13 4 12.55 4 12C4 11.45 4.45 11 5 11H9C9.55 11 10 11.45 10 12C10 12.55 9.55 13 9 13ZM11 9H5C4.45 9 4 8.55 4 8C4 7.45 4.45 7 5 7H11C11.55 7 12 7.45 12 8C12 8.55 11.55 9 11 9ZM20 16C20 16.55 19.55 17 19 17H17C16.45 17 16 16.55 16 16V14C16 13.45 16.45 13 17 13H19C19.55 13 20 13.45 20 14V16Z" fill="#0A3FFF"/>
<path d="M20 5H4C2.9 5 2 5.9 2 7V17C2 18.1 2.9 19 4 19H20C21.1 19 22 18.1 22 17V7C22 5.9 21.1 5 20 5ZM9 13H5C4.45 13 4 12.55 4 12C4 11.45 4.45 11 5 11H9C9.55 11 10 11.45 10 12C10 12.55 9.55 13 9 13ZM11 9H5C4.45 9 4 8.55 4 8C4 7.45 4.45 7 5 7H11C11.55 7 12 7.45 12 8C12 8.55 11.55 9 11 9ZM20 16C20 16.55 19.55 17 19 17H17C16.45 17 16 16.55 16 16V14C16 13.45 16.45 13 17 13H19C19.55 13 20 13.45 20 14V16Z" fill="black" fill-opacity="0.87"/>
</svg>
