<svg width="24" height="24" viewBox="0 0 24 24" fill="none" xmlns="http://www.w3.org/2000/svg">
<g clip-path="url(#clip0_1716_15379)">
<path d="M12 4.92904L9.87868 7.05036C9.48977 7.43927 9.48977 8.07567 9.87868 8.46458C10.2676 8.85349 10.904 8.85349 11.2929 8.46458L13.4142 6.34326C14.5809 5.17653 16.4901 5.17653 17.6569 6.34326C18.8236 7.50998 18.8236 9.41917 17.6569 10.5859L15.5355 12.7072C15.1466 13.0961 15.1466 13.7325 15.5355 14.1214C15.9244 14.5103 16.5608 14.5103 16.9497 14.1214L19.0711 12.0001C21.0227 10.0485 21.0227 6.88066 19.0711 4.92904C17.1194 2.97743 13.9516 2.97743 12 4.92904ZM9.17157 14.8285C9.56048 15.2174 10.1969 15.2174 10.5858 14.8285L14.8284 10.5859C15.2173 10.197 15.2173 9.56059 14.8284 9.17168C14.4395 8.78277 13.8031 8.78277 13.4142 9.17168L9.17157 13.4143C8.78266 13.8032 8.78266 14.4396 9.17157 14.8285ZM12.7071 15.5356L10.5858 17.657C9.41906 18.8237 7.50987 18.8237 6.34314 17.657C5.17642 16.4902 5.17642 14.5811 6.34314 13.4143L8.46446 11.293C8.85337 10.9041 8.85337 10.2677 8.46446 9.87879C8.07555 9.48988 7.43916 9.48988 7.05025 9.87879L4.92893 12.0001C2.97731 13.9517 2.97731 17.1196 4.92893 19.0712C6.88054 21.0228 10.0484 21.0228 12 19.0712L14.1213 16.9499C14.5102 16.5609 14.5102 15.9246 14.1213 15.5356C13.7324 15.1467 13.096 15.1467 12.7071 15.5356Z" fill="#0A3FFF"/>
<path d="M12 4.92904L9.87868 7.05036C9.48977 7.43927 9.48977 8.07567 9.87868 8.46458C10.2676 8.85349 10.904 8.85349 11.2929 8.46458L13.4142 6.34326C14.5809 5.17653 16.4901 5.17653 17.6569 6.34326C18.8236 7.50998 18.8236 9.41917 17.6569 10.5859L15.5355 12.7072C15.1466 13.0961 15.1466 13.7325 15.5355 14.1214C15.9244 14.5103 16.5608 14.5103 16.9497 14.1214L19.0711 12.0001C21.0227 10.0485 21.0227 6.88066 19.0711 4.92904C17.1194 2.97743 13.9516 2.97743 12 4.92904ZM9.17157 14.8285C9.56048 15.2174 10.1969 15.2174 10.5858 14.8285L14.8284 10.5859C15.2173 10.197 15.2173 9.56059 14.8284 9.17168C14.4395 8.78277 13.8031 8.78277 13.4142 9.17168L9.17157 13.4143C8.78266 13.8032 8.78266 14.4396 9.17157 14.8285ZM12.7071 15.5356L10.5858 17.657C9.41906 18.8237 7.50987 18.8237 6.34314 17.657C5.17642 16.4902 5.17642 14.5811 6.34314 13.4143L8.46446 11.293C8.85337 10.9041 8.85337 10.2677 8.46446 9.87879C8.07555 9.48988 7.43916 9.48988 7.05025 9.87879L4.92893 12.0001C2.97731 13.9517 2.97731 17.1196 4.92893 19.0712C6.88054 21.0228 10.0484 21.0228 12 19.0712L14.1213 16.9499C14.5102 16.5609 14.5102 15.9246 14.1213 15.5356C13.7324 15.1467 13.096 15.1467 12.7071 15.5356Z" fill="black" fill-opacity="0.87"/>
</g>
<defs>
<clipPath id="clip0_1716_15379">
<rect width="24" height="24" fill="white"/>
</clipPath>
</defs>
</svg>
