<svg width="24" height="24" viewBox="0 0 24 24" fill="none" xmlns="http://www.w3.org/2000/svg">
<g clip-path="url(#clip0_1699_15317)">
<path d="M14 8.99978H16.87C18.33 8.99978 19.67 9.97979 19.95 11.4198C20.26 13.0598 19.21 14.5298 17.73 14.8998L19.26 16.4298C21.03 15.5198 22.21 13.6098 21.96 11.4198C21.68 8.85979 19.37 6.99979 16.79 6.99979H14C13.45 6.99979 13 7.44978 13 7.99978C13 8.54979 13.45 8.99978 14 8.99978ZM3.51 3.50979C3.12 3.11979 2.49 3.11979 2.1 3.50979C1.71 3.89979 1.71 4.52979 2.1 4.91979L4.74 7.55978C2.97 8.46978 1.79 10.3798 2.04 12.5698C2.32 15.1398 4.63 16.9998 7.21 16.9998H10C10.55 16.9998 11 16.5498 11 15.9998C11 15.4498 10.55 14.9998 10 14.9998H7.13C5.67 14.9998 4.33 14.0198 4.05 12.5798C3.74 10.9398 4.8 9.46979 6.27 9.09979L8.39 11.2198C8.16 11.4098 8 11.6798 8 11.9998C8 12.5498 8.45 12.9998 9 12.9998H10.17L19.07 21.8998C19.46 22.2898 20.09 22.2898 20.48 21.8998C20.87 21.5098 20.87 20.8798 20.48 20.4898L3.51 3.50979ZM14 10.9998L15.71 12.7098C15.89 12.5298 16 12.2798 16 11.9998C16 11.4498 15.55 10.9998 15 10.9998H14Z" fill="#0A3FFF"/>
<path d="M14 8.99978H16.87C18.33 8.99978 19.67 9.97979 19.95 11.4198C20.26 13.0598 19.21 14.5298 17.73 14.8998L19.26 16.4298C21.03 15.5198 22.21 13.6098 21.96 11.4198C21.68 8.85979 19.37 6.99979 16.79 6.99979H14C13.45 6.99979 13 7.44978 13 7.99978C13 8.54979 13.45 8.99978 14 8.99978ZM3.51 3.50979C3.12 3.11979 2.49 3.11979 2.1 3.50979C1.71 3.89979 1.71 4.52979 2.1 4.91979L4.74 7.55978C2.97 8.46978 1.79 10.3798 2.04 12.5698C2.32 15.1398 4.63 16.9998 7.21 16.9998H10C10.55 16.9998 11 16.5498 11 15.9998C11 15.4498 10.55 14.9998 10 14.9998H7.13C5.67 14.9998 4.33 14.0198 4.05 12.5798C3.74 10.9398 4.8 9.46979 6.27 9.09979L8.39 11.2198C8.16 11.4098 8 11.6798 8 11.9998C8 12.5498 8.45 12.9998 9 12.9998H10.17L19.07 21.8998C19.46 22.2898 20.09 22.2898 20.48 21.8998C20.87 21.5098 20.87 20.8798 20.48 20.4898L3.51 3.50979ZM14 10.9998L15.71 12.7098C15.89 12.5298 16 12.2798 16 11.9998C16 11.4498 15.55 10.9998 15 10.9998H14Z" fill="black" fill-opacity="0.87"/>
</g>
<defs>
<clipPath id="clip0_1699_15317">
<rect width="24" height="24" fill="white"/>
</clipPath>
</defs>
</svg>
