<svg width="24" height="24" viewBox="0 0 24 24" fill="none" xmlns="http://www.w3.org/2000/svg">
<g clip-path="url(#clip0_748_7984)">
<path d="M12 2C7.58 2 4 5.58 4 10C4 18.14 12 22 12 22C12 22 20 18.14 20 10C20 5.58 16.42 2 12 2Z" fill="#0A3FFF"/>
<path d="M12 2C7.58 2 4 5.58 4 10C4 18.14 12 22 12 22C12 22 20 18.14 20 10C20 5.58 16.42 2 12 2Z" fill="black" fill-opacity="0.87"/>
<path d="M12 14C14.2091 14 16 12.2091 16 10C16 7.79086 14.2091 6 12 6C9.79086 6 8 7.79086 8 10C8 12.2091 9.79086 14 12 14Z" fill="white"/>
</g>
<defs>
<clipPath id="clip0_748_7984">
<rect width="16" height="20" fill="white" transform="translate(4 2)"/>
</clipPath>
</defs>
</svg>
