<svg width="24" height="24" viewBox="0 0 24 24" fill="none" xmlns="http://www.w3.org/2000/svg">
<path d="M18.3207 6.81121L17.1518 5.68045C16.7123 5.24016 16.1329 5 15.5135 5C14.8941 5 14.3147 5.24016 13.8751 5.68045L12.1469 7.41161L4.67433 14.8966C3.77522 15.7972 3.77522 17.2682 4.67433 18.1688L5.82318 19.3195C6.26274 19.7598 6.84216 20 7.46154 20C8.08092 20 8.66034 19.7598 9.0999 19.3195L16.5924 11.8245L18.3207 10.0934C18.7602 9.6531 19 9.07272 19 8.4523C19 7.83189 18.7602 7.2515 18.3207 6.81121ZM17.2418 9.0427L16.5724 9.71314L15.5135 10.7738C15.3536 10.934 15.1439 11.014 14.9341 11.014C14.7243 11.014 14.5145 10.934 14.3546 10.7738L13.2058 9.62308C12.8861 9.30287 12.8861 8.79253 13.2058 8.47231L14.2647 7.41161L14.9341 6.74116C15.0939 6.58105 15.3037 6.501 15.5135 6.501C15.7233 6.501 15.9331 6.58105 16.0929 6.74116L17.2418 7.89193C17.5614 8.21214 17.5614 8.72248 17.2418 9.0427Z" fill="#0A3FFF"/>
<path d="M18.3207 6.81121L17.1518 5.68045C16.7123 5.24016 16.1329 5 15.5135 5C14.8941 5 14.3147 5.24016 13.8751 5.68045L12.1469 7.41161L4.67433 14.8966C3.77522 15.7972 3.77522 17.2682 4.67433 18.1688L5.82318 19.3195C6.26274 19.7598 6.84216 20 7.46154 20C8.08092 20 8.66034 19.7598 9.0999 19.3195L16.5924 11.8245L18.3207 10.0934C18.7602 9.6531 19 9.07272 19 8.4523C19 7.83189 18.7602 7.2515 18.3207 6.81121ZM17.2418 9.0427L16.5724 9.71314L15.5135 10.7738C15.3536 10.934 15.1439 11.014 14.9341 11.014C14.7243 11.014 14.5145 10.934 14.3546 10.7738L13.2058 9.62308C12.8861 9.30287 12.8861 8.79253 13.2058 8.47231L14.2647 7.41161L14.9341 6.74116C15.0939 6.58105 15.3037 6.501 15.5135 6.501C15.7233 6.501 15.9331 6.58105 16.0929 6.74116L17.2418 7.89193C17.5614 8.21214 17.5614 8.72248 17.2418 9.0427Z" fill="black" fill-opacity="0.87"/>
<path d="M17.2418 7.8919L16.0929 6.74114C15.9331 6.58103 15.7233 6.50098 15.5135 6.50098C15.3037 6.50098 15.0939 6.58103 14.9341 6.74114L14.2647 7.41158L13.2058 8.47229C12.8861 8.7925 12.8861 9.30284 13.2058 9.62306L14.3546 10.7738C14.5145 10.9339 14.7243 11.014 14.9341 11.014C15.1439 11.014 15.3536 10.9339 15.5135 10.7738L16.5724 9.71312L17.2418 9.04267C17.5614 8.72246 17.5614 8.21212 17.2418 7.8919Z" fill="white"/>
<path d="M5.5 3C6.305 4.48167 7.51833 5.695 9 6.5C7.51833 7.305 6.305 8.51833 5.5 10C4.695 8.51833 3.48167 7.305 2 6.5C3.47 5.695 4.68333 4.48167 5.5 3Z" fill="#0A3FFF"/>
<path d="M5.5 3C6.305 4.48167 7.51833 5.695 9 6.5C7.51833 7.305 6.305 8.51833 5.5 10C4.695 8.51833 3.48167 7.305 2 6.5C3.47 5.695 4.68333 4.48167 5.5 3Z" fill="black" fill-opacity="0.87"/>
<path d="M19.5 12C20.075 13.05 20.95 13.925 22 14.5C20.95 15.075 20.075 15.95 19.5 17C18.925 15.95 18.05 15.075 17 14.5C18.05 13.925 18.925 13.05 19.5 12Z" fill="#0A3FFF"/>
<path d="M19.5 12C20.075 13.05 20.95 13.925 22 14.5C20.95 15.075 20.075 15.95 19.5 17C18.925 15.95 18.05 15.075 17 14.5C18.05 13.925 18.925 13.05 19.5 12Z" fill="black" fill-opacity="0.87"/>
<path d="M14.5 18C14.845 18.63 15.37 19.155 16 19.5C15.37 19.845 14.845 20.37 14.5 21C14.155 20.37 13.63 19.845 13 19.5C13.63 19.155 14.155 18.63 14.5 18Z" fill="#0A3FFF"/>
<path d="M14.5 18C14.845 18.63 15.37 19.155 16 19.5C15.37 19.845 14.845 20.37 14.5 21C14.155 20.37 13.63 19.845 13 19.5C13.63 19.155 14.155 18.63 14.5 18Z" fill="black" fill-opacity="0.87"/>
</svg>
