<svg width="24" height="24" viewBox="0 0 24 24" fill="none" xmlns="http://www.w3.org/2000/svg">
<path d="M5 21C4.45 21 3.97933 20.8043 3.588 20.413C3.19667 20.0217 3.00067 19.5507 3 19V5C3 4.45 3.196 3.97933 3.588 3.588C3.98 3.19667 4.45067 3.00067 5 3H19C19.55 3 20.021 3.196 20.413 3.588C20.805 3.98 21.0007 4.45067 21 5V15.175C21 15.4417 20.95 15.696 20.85 15.938C20.75 16.18 20.6083 16.3923 20.425 16.575L16.575 20.425C16.3917 20.6083 16.179 20.75 15.937 20.85C15.695 20.95 15.441 21 15.175 21H5ZM15 19L19 15H17C16.45 15 15.9793 15.196 15.588 15.588C15.1967 15.98 15.0007 16.4507 15 17V19ZM12 16C12.2833 16 12.521 15.904 12.713 15.712C12.905 15.52 13.0007 15.2827 13 15V10H15C15.2833 10 15.521 9.904 15.713 9.712C15.905 9.52 16.0007 9.28267 16 9C15.9993 8.71733 15.9033 8.48 15.712 8.288C15.5207 8.096 15.2833 8 15 8H9C8.71667 8 8.47933 8.096 8.288 8.288C8.09667 8.48 8.00067 8.71733 8 9C7.99933 9.28267 8.09533 9.52033 8.288 9.713C8.48067 9.90567 8.718 10.0013 9 10H11V15C11 15.2833 11.096 15.521 11.288 15.713C11.48 15.905 11.7173 16.0007 12 16Z" fill="#0A3FFF"/>
<path d="M5 21C4.45 21 3.97933 20.8043 3.588 20.413C3.19667 20.0217 3.00067 19.5507 3 19V5C3 4.45 3.196 3.97933 3.588 3.588C3.98 3.19667 4.45067 3.00067 5 3H19C19.55 3 20.021 3.196 20.413 3.588C20.805 3.98 21.0007 4.45067 21 5V15.175C21 15.4417 20.95 15.696 20.85 15.938C20.75 16.18 20.6083 16.3923 20.425 16.575L16.575 20.425C16.3917 20.6083 16.179 20.75 15.937 20.85C15.695 20.95 15.441 21 15.175 21H5ZM15 19L19 15H17C16.45 15 15.9793 15.196 15.588 15.588C15.1967 15.98 15.0007 16.4507 15 17V19ZM12 16C12.2833 16 12.521 15.904 12.713 15.712C12.905 15.52 13.0007 15.2827 13 15V10H15C15.2833 10 15.521 9.904 15.713 9.712C15.905 9.52 16.0007 9.28267 16 9C15.9993 8.71733 15.9033 8.48 15.712 8.288C15.5207 8.096 15.2833 8 15 8H9C8.71667 8 8.47933 8.096 8.288 8.288C8.09667 8.48 8.00067 8.71733 8 9C7.99933 9.28267 8.09533 9.52033 8.288 9.713C8.48067 9.90567 8.718 10.0013 9 10H11V15C11 15.2833 11.096 15.521 11.288 15.713C11.48 15.905 11.7173 16.0007 12 16Z" fill="black" fill-opacity="0.87"/>
</svg>
