<svg width="24" height="24" viewBox="0 0 24 24" fill="none" xmlns="http://www.w3.org/2000/svg">
<path d="M20 14.29C19.45 14.29 19 14.74 19 15.29V18C19 18.55 18.55 19 18 19H6C5.45 19 5 18.55 5 18V6C5 5.45 5.45 5 6 5H8.71C9.26 5 9.71 4.55 9.71 4C9.71 3.45 9.26 3 8.71 3H6C4.35 3 3 4.35 3 6V18C3 19.65 4.35 21 6 21H18C19.65 21 21 19.65 21 18V15.29C21 14.74 20.55 14.29 20 14.29Z" fill="#0A3FFF"/>
<path d="M20 14.29C19.45 14.29 19 14.74 19 15.29V18C19 18.55 18.55 19 18 19H6C5.45 19 5 18.55 5 18V6C5 5.45 5.45 5 6 5H8.71C9.26 5 9.71 4.55 9.71 4C9.71 3.45 9.26 3 8.71 3H6C4.35 3 3 4.35 3 6V18C3 19.65 4.35 21 6 21H18C19.65 21 21 19.65 21 18V15.29C21 14.74 20.55 14.29 20 14.29Z" fill="black" fill-opacity="0.87"/>
<path d="M20.9175 3.62052C20.8175 3.37031 20.6176 3.18015 20.3776 3.08007C20.2577 3.03003 20.1277 3 19.9977 3H13.999C13.4491 3 12.9992 3.45038 12.9992 4.00083C12.9992 4.55129 13.4491 5.00167 13.999 5.00167H17.5882L9.28994 13.2986C8.90002 13.6889 8.90002 14.3194 9.28994 14.7098C9.48989 14.9099 9.73984 15 9.99979 15C10.2597 15 10.5097 14.8999 10.7096 14.7098L18.9979 6.41284V10.0058C18.9979 10.5563 19.4478 11.0067 19.9977 11.0067C20.5476 11.0067 20.9975 10.5563 20.9975 10.0058V4.00083C20.9975 3.87073 20.9675 3.74062 20.9175 3.62052Z" fill="#0A3FFF"/>
<path d="M20.9175 3.62052C20.8175 3.37031 20.6176 3.18015 20.3776 3.08007C20.2577 3.03003 20.1277 3 19.9977 3H13.999C13.4491 3 12.9992 3.45038 12.9992 4.00083C12.9992 4.55129 13.4491 5.00167 13.999 5.00167H17.5882L9.28994 13.2986C8.90002 13.6889 8.90002 14.3194 9.28994 14.7098C9.48989 14.9099 9.73984 15 9.99979 15C10.2597 15 10.5097 14.8999 10.7096 14.7098L18.9979 6.41284V10.0058C18.9979 10.5563 19.4478 11.0067 19.9977 11.0067C20.5476 11.0067 20.9975 10.5563 20.9975 10.0058V4.00083C20.9975 3.87073 20.9675 3.74062 20.9175 3.62052Z" fill="black" fill-opacity="0.87"/>
</svg>
