<svg width="24" height="24" viewBox="0 0 24 24" fill="none" xmlns="http://www.w3.org/2000/svg">
<path d="M20.4 13.7397C21.27 12.9797 21.82 11.8697 21.82 10.6397C21.82 8.32973 19.9 6.46973 17.54 6.46973C16.84 6.46973 16.18 6.64973 15.6 6.94973C16.06 7.90973 16.32 8.97973 16.32 10.0997C16.32 11.4197 15.96 12.6997 15.3 13.8197C16.8 14.9297 16.97 16.4597 16.98 17.5397C17.16 17.5397 17.34 17.5397 17.54 17.5397C21.48 17.5397 21.98 17.5397 21.98 16.2297C21.98 15.2097 22.27 14.2297 20.4 13.7397Z" fill="#010821" fill-opacity="0.5"/>
<path d="M15.32 17.52C15.3 16.36 15.07 15.29 13.27 14.63C13.08 14.56 12.89 14.49 12.67 14.43C13.18 13.98 13.61 13.44 13.94 12.84C14.39 12.02 14.66 11.09 14.66 10.09C14.66 9.35 14.51 8.66 14.25 8.01C13.39 5.81 11.22 4.25 8.67 4.25C5.35 4.25 2.67 6.87 2.67 10.09C2.67 11.81 3.44 13.36 4.66 14.43C2.04 15.11 2 16.48 2 17.92C2 19.75 3.14 19.75 8.66 19.75C14.18 19.75 15.32 19.75 15.32 17.92C15.32 17.79 15.32 17.65 15.32 17.52Z" fill="#0A3FFF"/>
<path d="M15.32 17.52C15.3 16.36 15.07 15.29 13.27 14.63C13.08 14.56 12.89 14.49 12.67 14.43C13.18 13.98 13.61 13.44 13.94 12.84C14.39 12.02 14.66 11.09 14.66 10.09C14.66 9.35 14.51 8.66 14.25 8.01C13.39 5.81 11.22 4.25 8.67 4.25C5.35 4.25 2.67 6.87 2.67 10.09C2.67 11.81 3.44 13.36 4.66 14.43C2.04 15.11 2 16.48 2 17.92C2 19.75 3.14 19.75 8.66 19.75C14.18 19.75 15.32 19.75 15.32 17.92C15.32 17.79 15.32 17.65 15.32 17.52Z" fill="black" fill-opacity="0.87"/>
</svg>
