<svg width="48" height="48" viewBox="0 0 48 48" fill="none" xmlns="http://www.w3.org/2000/svg">
<path d="M16.4999 19C17.8806 19 18.9999 17.8807 18.9999 16.5C18.9999 15.1193 17.8806 14 16.4999 14C15.1192 14 13.9999 15.1193 13.9999 16.5C13.9999 17.8807 15.1192 19 16.4999 19Z" fill="#0A3FFF"/>
<path d="M16.4999 19C17.8806 19 18.9999 17.8807 18.9999 16.5C18.9999 15.1193 17.8806 14 16.4999 14C15.1192 14 13.9999 15.1193 13.9999 16.5C13.9999 17.8807 15.1192 19 16.4999 19Z" fill="black" fill-opacity="0.71"/>
<path d="M16.4999 19C17.8806 19 18.9999 17.8807 18.9999 16.5C18.9999 15.1193 17.8806 14 16.4999 14C15.1192 14 13.9999 15.1193 13.9999 16.5C13.9999 17.8807 15.1192 19 16.4999 19Z" fill="white" fill-opacity="0.66"/>
<path d="M34.9998 42.9999C39.418 42.9999 42.9997 39.4182 42.9997 34.9999C42.9997 30.5817 39.418 27 34.9998 27C30.5815 27 26.9998 30.5817 26.9998 34.9999C26.9998 39.4182 30.5815 42.9999 34.9998 42.9999Z" fill="#5F83FF"/>
<path d="M33.9147 37.9995C33.7253 37.9995 33.5433 37.9244 33.3976 37.7818L31.2128 35.5297C30.9288 35.2369 30.9288 34.764 31.2128 34.4712C31.4969 34.1784 31.9557 34.1784 32.2397 34.4712L33.9074 36.1903L37.7599 32.2191C38.0439 31.9263 38.5027 31.9263 38.7867 32.2191C39.0708 32.5119 39.0708 32.9848 38.7867 33.2776L34.4172 37.7818C34.2715 37.9319 34.0895 37.9995 33.9001 37.9995H33.9147Z" fill="white"/>
<path d="M34.9998 25C35.0698 25 35.1398 25 35.2198 25.01L28.4673 16.9518C28.0574 16.4626 27.3005 16.4774 26.91 16.9821L20.6013 25.1346C20.4264 25.3606 20.098 25.3943 19.8808 25.2085L17.1235 22.8491C16.6909 22.4789 16.037 22.5441 15.686 22.9923L8.99998 31.53V10.0001C8.99998 9.44785 9.4477 9.00014 9.99998 9.00014H35.9998C36.552 9.00014 36.9998 9.44785 36.9998 10.0001V25.2C37.6998 25.34 38.3598 25.56 38.9998 25.84V7.92159C38.9998 7.50014 38.4997 7.00016 37.9998 7.00015L7.99762 7C7.5 6.99954 7 7.49997 7 7.99778V37.9998C7 38.4996 7.5 38.9998 7.99999 38.9999H25.8398C25.2999 37.7699 24.9999 36.4199 24.9999 34.9999C24.9999 29.49 29.4898 25 34.9998 25Z" fill="#0A3FFF"/>
<path d="M34.9998 25C35.0698 25 35.1398 25 35.2198 25.01L28.4673 16.9518C28.0574 16.4626 27.3005 16.4774 26.91 16.9821L20.6013 25.1346C20.4264 25.3606 20.098 25.3943 19.8808 25.2085L17.1235 22.8491C16.6909 22.4789 16.037 22.5441 15.686 22.9923L8.99998 31.53V10.0001C8.99998 9.44785 9.4477 9.00014 9.99998 9.00014H35.9998C36.552 9.00014 36.9998 9.44785 36.9998 10.0001V25.2C37.6998 25.34 38.3598 25.56 38.9998 25.84V7.92159C38.9998 7.50014 38.4997 7.00016 37.9998 7.00015L7.99762 7C7.5 6.99954 7 7.49997 7 7.99778V37.9998C7 38.4996 7.5 38.9998 7.99999 38.9999H25.8398C25.2999 37.7699 24.9999 36.4199 24.9999 34.9999C24.9999 29.49 29.4898 25 34.9998 25Z" fill="black" fill-opacity="0.71"/>
<path d="M34.9998 25C35.0698 25 35.1398 25 35.2198 25.01L28.4673 16.9518C28.0574 16.4626 27.3005 16.4774 26.91 16.9821L20.6013 25.1346C20.4264 25.3606 20.098 25.3943 19.8808 25.2085L17.1235 22.8491C16.6909 22.4789 16.037 22.5441 15.686 22.9923L8.99998 31.53V10.0001C8.99998 9.44785 9.4477 9.00014 9.99998 9.00014H35.9998C36.552 9.00014 36.9998 9.44785 36.9998 10.0001V25.2C37.6998 25.34 38.3598 25.56 38.9998 25.84V7.92159C38.9998 7.50014 38.4997 7.00016 37.9998 7.00015L7.99762 7C7.5 6.99954 7 7.49997 7 7.99778V37.9998C7 38.4996 7.5 38.9998 7.99999 38.9999H25.8398C25.2999 37.7699 24.9999 36.4199 24.9999 34.9999C24.9999 29.49 29.4898 25 34.9998 25Z" fill="white" fill-opacity="0.66"/>
</svg>
