<svg width="48" height="48" viewBox="0 0 48 48" fill="none" xmlns="http://www.w3.org/2000/svg">
<path d="M16.4999 19C17.8806 19 18.9999 17.8807 18.9999 16.5C18.9999 15.1193 17.8806 14 16.4999 14C15.1192 14 13.9999 15.1193 13.9999 16.5C13.9999 17.8807 15.1192 19 16.4999 19Z" fill="#0A3FFF"/>
<path d="M16.4999 19C17.8806 19 18.9999 17.8807 18.9999 16.5C18.9999 15.1193 17.8806 14 16.4999 14C15.1192 14 13.9999 15.1193 13.9999 16.5C13.9999 17.8807 15.1192 19 16.4999 19Z" fill="black" fill-opacity="0.71"/>
<path d="M16.4999 19C17.8806 19 18.9999 17.8807 18.9999 16.5C18.9999 15.1193 17.8806 14 16.4999 14C15.1192 14 13.9999 15.1193 13.9999 16.5C13.9999 17.8807 15.1192 19 16.4999 19Z" fill="white" fill-opacity="0.66"/>
<path d="M34.9998 42.9999C39.4181 42.9999 42.9998 39.4182 42.9998 34.9999C42.9998 30.5817 39.4181 27 34.9998 27C30.5816 27 26.9999 30.5817 26.9999 34.9999C26.9999 39.4182 30.5816 42.9999 34.9998 42.9999Z" fill="#0A3FFF"/>
<path d="M34.9998 42.9999C39.4181 42.9999 42.9998 39.4182 42.9998 34.9999C42.9998 30.5817 39.4181 27 34.9998 27C30.5816 27 26.9999 30.5817 26.9999 34.9999C26.9999 39.4182 30.5816 42.9999 34.9998 42.9999Z" fill="black" fill-opacity="0.8"/>
<path d="M34.9998 42.9999C39.4181 42.9999 42.9998 39.4182 42.9998 34.9999C42.9998 30.5817 39.4181 27 34.9998 27C30.5816 27 26.9999 30.5817 26.9999 34.9999C26.9999 39.4182 30.5816 42.9999 34.9998 42.9999Z" fill="white" fill-opacity="0.3"/>
<path d="M38.4998 33.6499H35.9998V31.1499C35.9998 30.8699 35.7798 30.6499 35.4998 30.6499H34.4998C34.2198 30.6499 33.9998 30.8699 33.9998 31.1499V33.6499H31.4998C31.2198 33.6499 30.9998 33.8699 30.9998 34.1499V35.1499C30.9998 35.4299 31.2198 35.6499 31.4998 35.6499H33.9998V38.1498C33.9998 38.4298 34.2198 38.6498 34.4998 38.6498H35.4998C35.7798 38.6498 35.9998 38.4298 35.9998 38.1498V35.6499H38.4998C38.7798 35.6499 38.9998 35.4299 38.9998 35.1499V34.1499C38.9998 33.8699 38.7798 33.6499 38.4998 33.6499Z" fill="white"/>
<path d="M34.9998 25C35.0698 25 35.1398 25 35.2198 25.01L28.4673 16.9518C28.0575 16.4626 27.3005 16.4774 26.91 16.982L20.6013 25.1346C20.4264 25.3606 20.098 25.3943 19.8808 25.2085L17.1235 22.849C16.6909 22.4789 16.037 22.544 15.686 22.9923L8.99998 31.5299V10.0001C8.99998 9.44785 9.4477 9.00014 9.99998 9.00014H35.9998C36.5521 9.00014 36.9998 9.44785 36.9998 10.0001V25.2C37.6998 25.34 38.3598 25.56 38.9998 25.84V7.92159C38.9998 7.50014 38.4998 7.00016 37.9998 7.00015L7.99763 7C7.5 6.99954 7 7.49997 7 7.99778V37.9997C7 38.4996 7.5 38.9997 7.99999 38.9999H25.8399C25.2999 37.7699 24.9999 36.4199 24.9999 34.9999C24.9999 29.4899 29.4898 25 34.9998 25Z" fill="#0A3FFF"/>
<path d="M34.9998 25C35.0698 25 35.1398 25 35.2198 25.01L28.4673 16.9518C28.0575 16.4626 27.3005 16.4774 26.91 16.982L20.6013 25.1346C20.4264 25.3606 20.098 25.3943 19.8808 25.2085L17.1235 22.849C16.6909 22.4789 16.037 22.544 15.686 22.9923L8.99998 31.5299V10.0001C8.99998 9.44785 9.4477 9.00014 9.99998 9.00014H35.9998C36.5521 9.00014 36.9998 9.44785 36.9998 10.0001V25.2C37.6998 25.34 38.3598 25.56 38.9998 25.84V7.92159C38.9998 7.50014 38.4998 7.00016 37.9998 7.00015L7.99763 7C7.5 6.99954 7 7.49997 7 7.99778V37.9997C7 38.4996 7.5 38.9997 7.99999 38.9999H25.8399C25.2999 37.7699 24.9999 36.4199 24.9999 34.9999C24.9999 29.4899 29.4898 25 34.9998 25Z" fill="black" fill-opacity="0.71"/>
<path d="M34.9998 25C35.0698 25 35.1398 25 35.2198 25.01L28.4673 16.9518C28.0575 16.4626 27.3005 16.4774 26.91 16.982L20.6013 25.1346C20.4264 25.3606 20.098 25.3943 19.8808 25.2085L17.1235 22.849C16.6909 22.4789 16.037 22.544 15.686 22.9923L8.99998 31.5299V10.0001C8.99998 9.44785 9.4477 9.00014 9.99998 9.00014H35.9998C36.5521 9.00014 36.9998 9.44785 36.9998 10.0001V25.2C37.6998 25.34 38.3598 25.56 38.9998 25.84V7.92159C38.9998 7.50014 38.4998 7.00016 37.9998 7.00015L7.99763 7C7.5 6.99954 7 7.49997 7 7.99778V37.9997C7 38.4996 7.5 38.9997 7.99999 38.9999H25.8399C25.2999 37.7699 24.9999 36.4199 24.9999 34.9999C24.9999 29.4899 29.4898 25 34.9998 25Z" fill="white" fill-opacity="0.66"/>
</svg>
