<svg width="48" height="48" viewBox="0 0 48 48" fill="none" xmlns="http://www.w3.org/2000/svg">
<path d="M17.4999 20C18.8806 20 19.9999 18.8807 19.9999 17.5C19.9999 16.1193 18.8806 15 17.4999 15C16.1192 15 14.9999 16.1193 14.9999 17.5C14.9999 18.8807 16.1192 20 17.4999 20Z" fill="#0A3FFF"/>
<path d="M17.4999 20C18.8806 20 19.9999 18.8807 19.9999 17.5C19.9999 16.1193 18.8806 15 17.4999 15C16.1192 15 14.9999 16.1193 14.9999 17.5C14.9999 18.8807 16.1192 20 17.4999 20Z" fill="black" fill-opacity="0.71"/>
<path d="M17.4999 20C18.8806 20 19.9999 18.8807 19.9999 17.5C19.9999 16.1193 18.8806 15 17.4999 15C16.1192 15 14.9999 16.1193 14.9999 17.5C14.9999 18.8807 16.1192 20 17.4999 20Z" fill="white" fill-opacity="0.66"/>
<path fill-rule="evenodd" clip-rule="evenodd" d="M39 8C39.4999 8.00017 40 8.5005 40 8.92188V39C40 39.5523 39.5523 40 39 40H9C8.50008 39.9999 8.00016 39.4998 8 39V8.99805C8 8.50024 8.50042 7.99954 8.99805 8H39ZM11 10C10.4478 10 10.0001 10.4478 10 11V32.5303L16.6855 23.9922C17.0364 23.5441 17.6905 23.4789 18.123 23.8486L20.8809 26.209C21.098 26.3946 21.4267 26.3607 21.6016 26.1348L27.9102 17.9824C28.3007 17.4777 29.0579 17.463 29.4678 17.9521L34.9658 24.5127L35 24.5L38 28V11C37.9999 10.4479 37.5521 10.0001 37 10H11Z" fill="#A9AEC1"/>
</svg>
