<svg width="24" height="24" viewBox="0 0 24 24" fill="none" xmlns="http://www.w3.org/2000/svg">
<path d="M17 3H7C4.79 3 3 4.79 3 7V17C3 19.21 4.79 21 7 21H17C19.21 21 21 19.21 21 17V7C21 4.79 19.21 3 17 3ZM7 5H17C18.1 5 19 5.9 19 7V11.97L16 9L11.5 14L8.5 11.97L5.02 14.9V7C5.02 5.9 5.92 5 7.02 5H7Z" fill="#0A3FFF"/>
<path d="M17 3H7C4.79 3 3 4.79 3 7V17C3 19.21 4.79 21 7 21H17C19.21 21 21 19.21 21 17V7C21 4.79 19.21 3 17 3ZM7 5H17C18.1 5 19 5.9 19 7V11.97L16 9L11.5 14L8.5 11.97L5.02 14.9V7C5.02 5.9 5.92 5 7.02 5H7Z" fill="black" fill-opacity="0.87"/>
<path d="M8.5 10C9.32843 10 10 9.32843 10 8.5C10 7.67157 9.32843 7 8.5 7C7.67157 7 7 7.67157 7 8.5C7 9.32843 7.67157 10 8.5 10Z" fill="#0A3FFF"/>
<path d="M8.5 10C9.32843 10 10 9.32843 10 8.5C10 7.67157 9.32843 7 8.5 7C7.67157 7 7 7.67157 7 8.5C7 9.32843 7.67157 10 8.5 10Z" fill="black" fill-opacity="0.87"/>
</svg>
