<svg width="24" height="24" viewBox="0 0 24 24" fill="none" xmlns="http://www.w3.org/2000/svg">
<path d="M12.9631 1.82025C13.287 1.75375 13.6229 1.76835 13.9397 1.86322C14.2564 1.95814 14.5446 2.13058 14.7786 2.3642L21.635 9.22064C21.8687 9.45466 22.042 9.74368 22.137 10.0605C22.2318 10.3772 22.2464 10.7132 22.1799 11.0371C22.1134 11.3608 21.9671 11.6633 21.7551 11.9169C21.543 12.1706 21.271 12.3682 20.9641 12.4912L17.7571 13.7744L15.5012 19.0361C15.3727 19.3359 15.1721 19.5998 14.9182 19.8046C14.6639 20.0097 14.363 20.1499 14.0422 20.2119C13.7214 20.2738 13.3899 20.2557 13.0774 20.1601C12.8433 20.0884 12.6248 19.9749 12.4329 19.8251L12.2493 19.663L9.00024 16.414L4.70727 20.707C4.31678 21.0973 3.68369 21.0973 3.29321 20.707C2.90278 20.3165 2.90285 19.6834 3.29321 19.2929L7.58618 14.9999L4.33715 11.7509C4.10622 11.5197 3.93475 11.2343 3.83911 10.9218C3.74367 10.6096 3.72644 10.2785 3.78832 9.95795C3.8503 9.63734 3.98967 9.33623 4.19457 9.08197C4.3483 8.89139 4.53586 8.73076 4.74633 8.60834L4.96508 8.49799L10.2248 6.24311L11.509 3.03607L11.5588 2.92279C11.6823 2.6624 11.8605 2.43059 12.0823 2.24506C12.336 2.033 12.6392 1.88682 12.9631 1.82025Z" fill="#0A3FFF"/>
<path d="M12.9631 1.82025C13.287 1.75375 13.6229 1.76835 13.9397 1.86322C14.2564 1.95814 14.5446 2.13058 14.7786 2.3642L21.635 9.22064C21.8687 9.45466 22.042 9.74368 22.137 10.0605C22.2318 10.3772 22.2464 10.7132 22.1799 11.0371C22.1134 11.3608 21.9671 11.6633 21.7551 11.9169C21.543 12.1706 21.271 12.3682 20.9641 12.4912L17.7571 13.7744L15.5012 19.0361C15.3727 19.3359 15.1721 19.5998 14.9182 19.8046C14.6639 20.0097 14.363 20.1499 14.0422 20.2119C13.7214 20.2738 13.3899 20.2557 13.0774 20.1601C12.8433 20.0884 12.6248 19.9749 12.4329 19.8251L12.2493 19.663L9.00024 16.414L4.70727 20.707C4.31678 21.0973 3.68369 21.0973 3.29321 20.707C2.90278 20.3165 2.90285 19.6834 3.29321 19.2929L7.58618 14.9999L4.33715 11.7509C4.10622 11.5197 3.93475 11.2343 3.83911 10.9218C3.74367 10.6096 3.72644 10.2785 3.78832 9.95795C3.8503 9.63734 3.98967 9.33623 4.19457 9.08197C4.3483 8.89139 4.53586 8.73076 4.74633 8.60834L4.96508 8.49799L10.2248 6.24311L11.509 3.03607L11.5588 2.92279C11.6823 2.6624 11.8605 2.43059 12.0823 2.24506C12.336 2.033 12.6392 1.88682 12.9631 1.82025Z" fill="black" fill-opacity="0.87"/>
</svg>
