<svg width="24" height="24" viewBox="0 0 24 24" fill="none" xmlns="http://www.w3.org/2000/svg">
<path d="M12 11C14.2091 11 16 9.20914 16 7C16 4.79086 14.2091 3 12 3C9.79086 3 8 4.79086 8 7C8 9.20914 9.79086 11 12 11Z" fill="#0A3FFF"/>
<path d="M12 11C14.2091 11 16 9.20914 16 7C16 4.79086 14.2091 3 12 3C9.79086 3 8 4.79086 8 7C8 9.20914 9.79086 11 12 11Z" fill="black" fill-opacity="0.87"/>
<path d="M21 18.33C21 21.27 16.97 20.99 12 20.99C7.03 20.99 3 21.27 3 18.33C3 15.39 7.03 13 12 13C16.97 13 21 15.39 21 18.33Z" fill="#0A3FFF"/>
<path d="M21 18.33C21 21.27 16.97 20.99 12 20.99C7.03 20.99 3 21.27 3 18.33C3 15.39 7.03 13 12 13C16.97 13 21 15.39 21 18.33Z" fill="black" fill-opacity="0.87"/>
</svg>
