<svg width="24" height="24" viewBox="0 0 24 24" fill="none" xmlns="http://www.w3.org/2000/svg">
<path d="M9 3H5C3.89543 3 3 3.89543 3 5V9C3 10.1046 3.89543 11 5 11H9C10.1046 11 11 10.1046 11 9V5C11 3.89543 10.1046 3 9 3Z" fill="#0A3FFF"/>
<path d="M9 3H5C3.89543 3 3 3.89543 3 5V9C3 10.1046 3.89543 11 5 11H9C10.1046 11 11 10.1046 11 9V5C11 3.89543 10.1046 3 9 3Z" fill="black" fill-opacity="0.87"/>
<path d="M19 3H15C13.8954 3 13 3.89543 13 5V9C13 10.1046 13.8954 11 15 11H19C20.1046 11 21 10.1046 21 9V5C21 3.89543 20.1046 3 19 3Z" fill="#0A3FFF"/>
<path d="M19 3H15C13.8954 3 13 3.89543 13 5V9C13 10.1046 13.8954 11 15 11H19C20.1046 11 21 10.1046 21 9V5C21 3.89543 20.1046 3 19 3Z" fill="black" fill-opacity="0.87"/>
<path d="M9 13H5C3.89543 13 3 13.8954 3 15V19C3 20.1046 3.89543 21 5 21H9C10.1046 21 11 20.1046 11 19V15C11 13.8954 10.1046 13 9 13Z" fill="#0A3FFF"/>
<path d="M9 13H5C3.89543 13 3 13.8954 3 15V19C3 20.1046 3.89543 21 5 21H9C10.1046 21 11 20.1046 11 19V15C11 13.8954 10.1046 13 9 13Z" fill="black" fill-opacity="0.87"/>
<path d="M14 21C13.45 21 13 20.55 13 20V14C13 13.45 13.45 13 14 13C14.55 13 15 13.45 15 14V20C15 20.55 14.55 21 14 21Z" fill="#0A3FFF"/>
<path d="M14 21C13.45 21 13 20.55 13 20V14C13 13.45 13.45 13 14 13C14.55 13 15 13.45 15 14V20C15 20.55 14.55 21 14 21Z" fill="black" fill-opacity="0.87"/>
<path d="M20 21C19.45 21 19 20.55 19 20V14C19 13.45 19.45 13 20 13C20.55 13 21 13.45 21 14V20C21 20.55 20.55 21 20 21Z" fill="#0A3FFF"/>
<path d="M20 21C19.45 21 19 20.55 19 20V14C19 13.45 19.45 13 20 13C20.55 13 21 13.45 21 14V20C21 20.55 20.55 21 20 21Z" fill="black" fill-opacity="0.87"/>
<path d="M17 21C16.45 21 16 20.55 16 20V19C16 18.45 16.45 18 17 18C17.55 18 18 18.45 18 19V20C18 20.55 17.55 21 17 21Z" fill="#0A3FFF"/>
<path d="M17 21C16.45 21 16 20.55 16 20V19C16 18.45 16.45 18 17 18C17.55 18 18 18.45 18 19V20C18 20.55 17.55 21 17 21Z" fill="black" fill-opacity="0.87"/>
<path d="M17 17C16.45 17 16 16.55 16 16V14C16 13.45 16.45 13 17 13C17.55 13 18 13.45 18 14V16C18 16.55 17.55 17 17 17Z" fill="#0A3FFF"/>
<path d="M17 17C16.45 17 16 16.55 16 16V14C16 13.45 16.45 13 17 13C17.55 13 18 13.45 18 14V16C18 16.55 17.55 17 17 17Z" fill="black" fill-opacity="0.87"/>
</svg>
