<svg width="24" height="24" viewBox="0 0 24 24" fill="none" xmlns="http://www.w3.org/2000/svg">
<path d="M3.8623 12.0089C4.40928 11.9329 4.91415 12.3155 4.99023 12.8624C5.20463 14.4048 5.92086 15.8341 7.02734 16.9298C8.13389 18.0255 9.56981 18.7276 11.1143 18.9269C12.6588 19.1262 14.2258 18.8113 15.5742 18.0324C16.461 17.52 17.22 16.8247 17.8066 16.0001H16C15.4478 16.0001 15.0002 15.5523 15 15.0001C15.0001 14.4479 15.4478 14.0001 16 14.0001H20C20.5522 14.0001 20.9999 14.4479 21 15.0001V19.0001C20.9998 19.5523 20.5522 20.0001 20 20.0001C19.4478 20.0001 19.0002 19.5523 19 19.0001V17.7238C18.3211 18.5349 17.5033 19.2286 16.5752 19.7648C14.8469 20.7633 12.838 21.1657 10.8584 20.9103C8.87883 20.6549 7.03838 19.7551 5.62012 18.3507C4.20196 16.9463 3.28458 15.1147 3.00977 13.1378C2.93382 12.5908 3.31532 12.0849 3.8623 12.0089Z" fill="#0A3FFF"/>
<path d="M3.8623 12.0089C4.40928 11.9329 4.91415 12.3155 4.99023 12.8624C5.20463 14.4048 5.92086 15.8341 7.02734 16.9298C8.13389 18.0255 9.56981 18.7276 11.1143 18.9269C12.6588 19.1262 14.2258 18.8113 15.5742 18.0324C16.461 17.52 17.22 16.8247 17.8066 16.0001H16C15.4478 16.0001 15.0002 15.5523 15 15.0001C15.0001 14.4479 15.4478 14.0001 16 14.0001H20C20.5522 14.0001 20.9999 14.4479 21 15.0001V19.0001C20.9998 19.5523 20.5522 20.0001 20 20.0001C19.4478 20.0001 19.0002 19.5523 19 19.0001V17.7238C18.3211 18.5349 17.5033 19.2286 16.5752 19.7648C14.8469 20.7633 12.838 21.1657 10.8584 20.9103C8.87883 20.6549 7.03838 19.7551 5.62012 18.3507C4.20196 16.9463 3.28458 15.1147 3.00977 13.1378C2.93382 12.5908 3.31532 12.0849 3.8623 12.0089Z" fill="black" fill-opacity="0.87"/>
<path d="M7.4248 4.23548C9.15314 3.23702 11.162 2.83454 13.1416 3.08997C15.1211 3.34539 16.9616 4.24428 18.3799 5.64857C19.7981 7.05304 20.7155 8.88545 20.9902 10.8624C21.0661 11.4094 20.6846 11.9143 20.1377 11.9904C19.5908 12.0664 19.086 11.6847 19.0098 11.1378C18.7954 9.59535 18.0792 8.16526 16.9727 7.06946C15.8662 5.97391 14.4301 5.27265 12.8857 5.07337C11.3413 4.8741 9.77419 5.18803 8.42578 5.96693C7.53867 6.47942 6.77915 7.17525 6.19238 8.00013H8C8.55224 8.00013 8.99993 8.44791 9 9.00013C8.99984 9.55228 8.55219 10.0001 8 10.0001H4C3.44781 10.0001 3.00016 9.55228 3 9.00013V5.00013C3.00007 4.44791 3.44776 4.00013 4 4.00013C4.55224 4.00013 4.99993 4.44791 5 5.00013V6.27454C5.67866 5.4638 6.49716 4.77143 7.4248 4.23548Z" fill="#0A3FFF"/>
<path d="M7.4248 4.23548C9.15314 3.23702 11.162 2.83454 13.1416 3.08997C15.1211 3.34539 16.9616 4.24428 18.3799 5.64857C19.7981 7.05304 20.7155 8.88545 20.9902 10.8624C21.0661 11.4094 20.6846 11.9143 20.1377 11.9904C19.5908 12.0664 19.086 11.6847 19.0098 11.1378C18.7954 9.59535 18.0792 8.16526 16.9727 7.06946C15.8662 5.97391 14.4301 5.27265 12.8857 5.07337C11.3413 4.8741 9.77419 5.18803 8.42578 5.96693C7.53867 6.47942 6.77915 7.17525 6.19238 8.00013H8C8.55224 8.00013 8.99993 8.44791 9 9.00013C8.99984 9.55228 8.55219 10.0001 8 10.0001H4C3.44781 10.0001 3.00016 9.55228 3 9.00013V5.00013C3.00007 4.44791 3.44776 4.00013 4 4.00013C4.55224 4.00013 4.99993 4.44791 5 5.00013V6.27454C5.67866 5.4638 6.49716 4.77143 7.4248 4.23548Z" fill="black" fill-opacity="0.87"/>
</svg>
