<svg width="24" height="24" viewBox="0 0 24 24" fill="none" xmlns="http://www.w3.org/2000/svg">
<path d="M18.9985 9.99541C18.7184 9.99541 18.4982 10.2155 18.4982 10.4956V16.5081C18.4982 16.9183 18.1581 17.2584 17.7479 17.2584C17.3377 17.2584 16.9975 16.9183 16.9975 16.5081V8.33472C16.9975 7.88454 16.8374 7.45436 16.5373 7.11421L13.5358 3.68278C12.7354 2.77241 11.2646 2.77241 10.4642 3.68278L7.46273 7.11421C7.16258 7.45436 7.0025 7.88454 7.0025 8.33472V16.5081C7.0025 16.9183 6.66233 17.2584 6.25213 17.2584C5.84192 17.2584 5.50175 16.9183 5.50175 16.5081V10.4956C5.50175 10.2155 5.28164 9.99541 5.0015 9.99541C3.34067 9.99541 2 11.336 2 12.9967V19.9996C2 20.5498 2.45023 21 3.0005 21H20.9995C21.5498 21 22 20.5498 22 19.9996V12.9967C22 11.336 20.6593 9.99541 18.9985 9.99541ZM11.995 12.1263C10.8944 12.1263 9.994 11.2259 9.994 10.1255C9.994 9.02501 10.8944 8.12464 11.995 8.12464C13.0955 8.12464 13.996 9.02501 13.996 10.1255C13.996 11.2259 13.0955 12.1263 11.995 12.1263Z" fill="#0A3FFF"/>
<path d="M18.9985 9.99541C18.7184 9.99541 18.4982 10.2155 18.4982 10.4956V16.5081C18.4982 16.9183 18.1581 17.2584 17.7479 17.2584C17.3377 17.2584 16.9975 16.9183 16.9975 16.5081V8.33472C16.9975 7.88454 16.8374 7.45436 16.5373 7.11421L13.5358 3.68278C12.7354 2.77241 11.2646 2.77241 10.4642 3.68278L7.46273 7.11421C7.16258 7.45436 7.0025 7.88454 7.0025 8.33472V16.5081C7.0025 16.9183 6.66233 17.2584 6.25213 17.2584C5.84192 17.2584 5.50175 16.9183 5.50175 16.5081V10.4956C5.50175 10.2155 5.28164 9.99541 5.0015 9.99541C3.34067 9.99541 2 11.336 2 12.9967V19.9996C2 20.5498 2.45023 21 3.0005 21H20.9995C21.5498 21 22 20.5498 22 19.9996V12.9967C22 11.336 20.6593 9.99541 18.9985 9.99541ZM11.995 12.1263C10.8944 12.1263 9.994 11.2259 9.994 10.1255C9.994 9.02501 10.8944 8.12464 11.995 8.12464C13.0955 8.12464 13.996 9.02501 13.996 10.1255C13.996 11.2259 13.0955 12.1263 11.995 12.1263Z" fill="black" fill-opacity="0.87"/>
</svg>
