<svg width="24" height="24" viewBox="0 0 24 24" fill="none" xmlns="http://www.w3.org/2000/svg">
<path d="M16.5 14.0039C15.52 14.0039 14.63 14.4137 13.99 15.0633L8.93 12.4148C8.97 12.1949 9 11.975 9 11.7451C9 11.5652 8.97 11.3853 8.95 11.2054L13.92 8.83676C14.56 9.54636 15.48 9.99611 16.5 9.99611C18.43 9.99611 20 8.42698 20 6.49806C20 4.56913 18.43 3 16.5 3C14.57 3 13 4.56913 13 6.49806C13 6.67796 13.03 6.85786 13.05 7.03776L8.08 9.40644C7.44 8.69684 6.52 8.24708 5.5 8.24708C3.57 8.24708 2 9.81621 2 11.7451C2 13.6741 3.57 15.2432 5.5 15.2432C6.48 15.2432 7.37 14.8334 8.01 14.1838L13.07 16.8323C13.03 17.0522 13 17.2721 13 17.5019C13 19.4309 14.57 21 16.5 21C18.43 21 20 19.4309 20 17.5019C20 15.573 18.43 14.0039 16.5 14.0039Z" fill="#0A3FFF"/>
<path d="M16.5 14.0039C15.52 14.0039 14.63 14.4137 13.99 15.0633L8.93 12.4148C8.97 12.1949 9 11.975 9 11.7451C9 11.5652 8.97 11.3853 8.95 11.2054L13.92 8.83676C14.56 9.54636 15.48 9.99611 16.5 9.99611C18.43 9.99611 20 8.42698 20 6.49806C20 4.56913 18.43 3 16.5 3C14.57 3 13 4.56913 13 6.49806C13 6.67796 13.03 6.85786 13.05 7.03776L8.08 9.40644C7.44 8.69684 6.52 8.24708 5.5 8.24708C3.57 8.24708 2 9.81621 2 11.7451C2 13.6741 3.57 15.2432 5.5 15.2432C6.48 15.2432 7.37 14.8334 8.01 14.1838L13.07 16.8323C13.03 17.0522 13 17.2721 13 17.5019C13 19.4309 14.57 21 16.5 21C18.43 21 20 19.4309 20 17.5019C20 15.573 18.43 14.0039 16.5 14.0039Z" fill="black" fill-opacity="0.87"/>
</svg>
