<svg width="24" height="24" viewBox="0 0 24 24" fill="none" xmlns="http://www.w3.org/2000/svg">
<path d="M18 4H13C12.45 4 12 4.45 12 5V19C12 19.55 12.45 20 13 20H18C20.21 20 22 18.21 22 16V8C22 5.79 20.21 4 18 4ZM17.71 13.04C18.1 13.43 18.1 14.06 17.71 14.45C17.51 14.65 17.26 14.74 17 14.74C16.74 14.74 16.49 14.64 16.29 14.45L14.29 12.45C14.1 12.26 14 12.01 14 11.74C14 11.47 14.11 11.2 14.29 11.02L16.29 9.02C16.68 8.63 17.31 8.63 17.7 9.02C18.09 9.41 18.09 10.04 17.7 10.43L16.4 11.73L17.7 13.03L17.71 13.04Z" fill="#0A3FFF"/>
<path d="M18 4H13C12.45 4 12 4.45 12 5V19C12 19.55 12.45 20 13 20H18C20.21 20 22 18.21 22 16V8C22 5.79 20.21 4 18 4ZM17.71 13.04C18.1 13.43 18.1 14.06 17.71 14.45C17.51 14.65 17.26 14.74 17 14.74C16.74 14.74 16.49 14.64 16.29 14.45L14.29 12.45C14.1 12.26 14 12.01 14 11.74C14 11.47 14.11 11.2 14.29 11.02L16.29 9.02C16.68 8.63 17.31 8.63 17.7 9.02C18.09 9.41 18.09 10.04 17.7 10.43L16.4 11.73L17.7 13.03L17.71 13.04Z" fill="black" fill-opacity="0.75"/>
<path d="M18 4H13C12.45 4 12 4.45 12 5V19C12 19.55 12.45 20 13 20H18C20.21 20 22 18.21 22 16V8C22 5.79 20.21 4 18 4ZM17.71 13.04C18.1 13.43 18.1 14.06 17.71 14.45C17.51 14.65 17.26 14.74 17 14.74C16.74 14.74 16.49 14.64 16.29 14.45L14.29 12.45C14.1 12.26 14 12.01 14 11.74C14 11.47 14.11 11.2 14.29 11.02L16.29 9.02C16.68 8.63 17.31 8.63 17.7 9.02C18.09 9.41 18.09 10.04 17.7 10.43L16.4 11.73L17.7 13.03L17.71 13.04Z" fill="white" fill-opacity="0.45"/>
<path d="M9 4H6C3.79 4 2 5.79 2 8V16C2 18.21 3.79 20 6 20H9C9.55 20 10 19.55 10 19V5C10 4.45 9.55 4 9 4ZM7.02 17H5.02C4.47 17 4.02 16.55 4.02 16C4.02 15.45 4.47 15 5.02 15H7.02C7.57 15 8.02 15.45 8.02 16C8.02 16.55 7.57 17 7.02 17ZM7.02 13H5.02C4.47 13 4.02 12.55 4.02 12C4.02 11.45 4.47 11 5.02 11H7.02C7.57 11 8.02 11.45 8.02 12C8.02 12.55 7.57 13 7.02 13ZM7.02 9H5.02C4.47 9 4.02 8.55 4.02 8C4.02 7.45 4.47 7 5.02 7H7.02C7.57 7 8.02 7.45 8.02 8C8.02 8.55 7.57 9 7.02 9Z" fill="#0A3FFF"/>
<path d="M9 4H6C3.79 4 2 5.79 2 8V16C2 18.21 3.79 20 6 20H9C9.55 20 10 19.55 10 19V5C10 4.45 9.55 4 9 4ZM7.02 17H5.02C4.47 17 4.02 16.55 4.02 16C4.02 15.45 4.47 15 5.02 15H7.02C7.57 15 8.02 15.45 8.02 16C8.02 16.55 7.57 17 7.02 17ZM7.02 13H5.02C4.47 13 4.02 12.55 4.02 12C4.02 11.45 4.47 11 5.02 11H7.02C7.57 11 8.02 11.45 8.02 12C8.02 12.55 7.57 13 7.02 13ZM7.02 9H5.02C4.47 9 4.02 8.55 4.02 8C4.02 7.45 4.47 7 5.02 7H7.02C7.57 7 8.02 7.45 8.02 8C8.02 8.55 7.57 9 7.02 9Z" fill="black" fill-opacity="0.84"/>
<path d="M9 4H6C3.79 4 2 5.79 2 8V16C2 18.21 3.79 20 6 20H9C9.55 20 10 19.55 10 19V5C10 4.45 9.55 4 9 4ZM7.02 17H5.02C4.47 17 4.02 16.55 4.02 16C4.02 15.45 4.47 15 5.02 15H7.02C7.57 15 8.02 15.45 8.02 16C8.02 16.55 7.57 17 7.02 17ZM7.02 13H5.02C4.47 13 4.02 12.55 4.02 12C4.02 11.45 4.47 11 5.02 11H7.02C7.57 11 8.02 11.45 8.02 12C8.02 12.55 7.57 13 7.02 13ZM7.02 9H5.02C4.47 9 4.02 8.55 4.02 8C4.02 7.45 4.47 7 5.02 7H7.02C7.57 7 8.02 7.45 8.02 8C8.02 8.55 7.57 9 7.02 9Z" fill="white" fill-opacity="0.2"/>
</svg>
