<svg width="24" height="24" viewBox="0 0 24 24" fill="none" xmlns="http://www.w3.org/2000/svg">
<path d="M18 4H11C10.45 4 10 4.45 10 5V19C10 19.55 10.45 20 11 20H18C20.21 20 22 18.21 22 16V8C22 5.79 20.21 4 18 4ZM17.71 12.46L15.71 14.46C15.32 14.85 14.69 14.85 14.3 14.46C13.91 14.07 13.91 13.44 14.3 13.05L15.6 11.75L14.3 10.45C13.91 10.06 13.91 9.43 14.3 9.04C14.5 8.84 14.75 8.75 15.01 8.75C15.27 8.75 15.52 8.85 15.72 9.04L17.72 11.04C17.91 11.23 18.01 11.48 18.01 11.75C18.01 12.02 17.9 12.29 17.72 12.47L17.71 12.46Z" fill="#0A3FFF"/>
<path d="M18 4H11C10.45 4 10 4.45 10 5V19C10 19.55 10.45 20 11 20H18C20.21 20 22 18.21 22 16V8C22 5.79 20.21 4 18 4ZM17.71 12.46L15.71 14.46C15.32 14.85 14.69 14.85 14.3 14.46C13.91 14.07 13.91 13.44 14.3 13.05L15.6 11.75L14.3 10.45C13.91 10.06 13.91 9.43 14.3 9.04C14.5 8.84 14.75 8.75 15.01 8.75C15.27 8.75 15.52 8.85 15.72 9.04L17.72 11.04C17.91 11.23 18.01 11.48 18.01 11.75C18.01 12.02 17.9 12.29 17.72 12.47L17.71 12.46Z" fill="black" fill-opacity="0.84"/>
<path d="M18 4H11C10.45 4 10 4.45 10 5V19C10 19.55 10.45 20 11 20H18C20.21 20 22 18.21 22 16V8C22 5.79 20.21 4 18 4ZM17.71 12.46L15.71 14.46C15.32 14.85 14.69 14.85 14.3 14.46C13.91 14.07 13.91 13.44 14.3 13.05L15.6 11.75L14.3 10.45C13.91 10.06 13.91 9.43 14.3 9.04C14.5 8.84 14.75 8.75 15.01 8.75C15.27 8.75 15.52 8.85 15.72 9.04L17.72 11.04C17.91 11.23 18.01 11.48 18.01 11.75C18.01 12.02 17.9 12.29 17.72 12.47L17.71 12.46Z" fill="white" fill-opacity="0.2"/>
<path d="M7 4H6C3.79 4 2 5.79 2 8V16C2 18.21 3.79 20 6 20H7C7.55 20 8 19.55 8 19V5C8 4.45 7.55 4 7 4ZM5 16.75C4.45 16.75 4 16.3 4 15.75C4 15.2 4.45 14.75 5 14.75C5.55 14.75 6 15.2 6 15.75C6 16.3 5.55 16.75 5 16.75ZM5 12.75C4.45 12.75 4 12.3 4 11.75C4 11.2 4.45 10.75 5 10.75C5.55 10.75 6 11.2 6 11.75C6 12.3 5.55 12.75 5 12.75ZM5 8.75C4.45 8.75 4 8.3 4 7.75C4 7.2 4.45 6.75 5 6.75C5.55 6.75 6 7.2 6 7.75C6 8.3 5.55 8.75 5 8.75Z" fill="#0A3FFF"/>
<path d="M7 4H6C3.79 4 2 5.79 2 8V16C2 18.21 3.79 20 6 20H7C7.55 20 8 19.55 8 19V5C8 4.45 7.55 4 7 4ZM5 16.75C4.45 16.75 4 16.3 4 15.75C4 15.2 4.45 14.75 5 14.75C5.55 14.75 6 15.2 6 15.75C6 16.3 5.55 16.75 5 16.75ZM5 12.75C4.45 12.75 4 12.3 4 11.75C4 11.2 4.45 10.75 5 10.75C5.55 10.75 6 11.2 6 11.75C6 12.3 5.55 12.75 5 12.75ZM5 8.75C4.45 8.75 4 8.3 4 7.75C4 7.2 4.45 6.75 5 6.75C5.55 6.75 6 7.2 6 7.75C6 8.3 5.55 8.75 5 8.75Z" fill="black" fill-opacity="0.75"/>
<path d="M7 4H6C3.79 4 2 5.79 2 8V16C2 18.21 3.79 20 6 20H7C7.55 20 8 19.55 8 19V5C8 4.45 7.55 4 7 4ZM5 16.75C4.45 16.75 4 16.3 4 15.75C4 15.2 4.45 14.75 5 14.75C5.55 14.75 6 15.2 6 15.75C6 16.3 5.55 16.75 5 16.75ZM5 12.75C4.45 12.75 4 12.3 4 11.75C4 11.2 4.45 10.75 5 10.75C5.55 10.75 6 11.2 6 11.75C6 12.3 5.55 12.75 5 12.75ZM5 8.75C4.45 8.75 4 8.3 4 7.75C4 7.2 4.45 6.75 5 6.75C5.55 6.75 6 7.2 6 7.75C6 8.3 5.55 8.75 5 8.75Z" fill="white" fill-opacity="0.45"/>
</svg>
