<svg width="24" height="24" viewBox="0 0 24 24" fill="none" xmlns="http://www.w3.org/2000/svg">
<path d="M14.305 9.58826C13.5157 8.70635 13.121 8.2654 12.6459 8.1053C12.2292 7.9649 11.7708 7.9649 11.3541 8.1053C10.879 8.2654 10.4843 8.70635 9.69497 9.58826L7.89112 11.6037C6.63318 13.0092 6.0042 13.7119 6.00004 14.3042C5.99642 14.8191 6.25238 15.3073 6.69492 15.6295C7.20385 16 8.20129 16 10.1962 16H13.8038C15.7987 16 16.7961 16 17.3051 15.6295C17.7476 15.3073 18.0036 14.8191 18 14.3042C17.9958 13.7119 17.3668 13.0092 16.1089 11.6037L14.305 9.58826Z" fill="#0A3FFF"/>
<path d="M14.305 9.58826C13.5157 8.70635 13.121 8.2654 12.6459 8.1053C12.2292 7.9649 11.7708 7.9649 11.3541 8.1053C10.879 8.2654 10.4843 8.70635 9.69497 9.58826L7.89112 11.6037C6.63318 13.0092 6.0042 13.7119 6.00004 14.3042C5.99642 14.8191 6.25238 15.3073 6.69492 15.6295C7.20385 16 8.20129 16 10.1962 16H13.8038C15.7987 16 16.7961 16 17.3051 15.6295C17.7476 15.3073 18.0036 14.8191 18 14.3042C17.9958 13.7119 17.3668 13.0092 16.1089 11.6037L14.305 9.58826Z" fill="black" fill-opacity="0.87"/>
</svg>
