<svg width="24" height="24" viewBox="0 0 24 24" fill="none" xmlns="http://www.w3.org/2000/svg">
<path d="M9.69502 14.4113C10.4843 15.2932 10.879 15.7341 11.3542 15.8942C11.7709 16.0346 12.2292 16.0346 12.6459 15.8942C13.1211 15.7341 13.5158 15.2932 14.3051 14.4113L16.1089 12.3958C17.3669 10.9903 17.9959 10.2876 18 9.69536C18.0036 9.1804 17.7477 8.6922 17.3051 8.37003C16.7962 7.99951 15.7988 7.99951 13.8039 7.99951L10.1962 7.99951C8.20134 7.99951 7.20391 7.99951 6.69498 8.37002C6.25244 8.6922 5.99647 9.1804 6.00009 9.69536C6.00425 10.2876 6.63323 10.9903 7.89118 12.3958L9.69502 14.4113Z" fill="#0A3FFF"/>
<path d="M9.69502 14.4113C10.4843 15.2932 10.879 15.7341 11.3542 15.8942C11.7709 16.0346 12.2292 16.0346 12.6459 15.8942C13.1211 15.7341 13.5158 15.2932 14.3051 14.4113L16.1089 12.3958C17.3669 10.9903 17.9959 10.2876 18 9.69536C18.0036 9.1804 17.7477 8.6922 17.3051 8.37003C16.7962 7.99951 15.7988 7.99951 13.8039 7.99951L10.1962 7.99951C8.20134 7.99951 7.20391 7.99951 6.69498 8.37002C6.25244 8.6922 5.99647 9.1804 6.00009 9.69536C6.00425 10.2876 6.63323 10.9903 7.89118 12.3958L9.69502 14.4113Z" fill="black" fill-opacity="0.87"/>
</svg>
