<svg width="24" height="24" viewBox="0 0 24 24" fill="none" xmlns="http://www.w3.org/2000/svg">
<g clip-path="url(#clip0_786_21352)">
<path d="M15.92 16.5102C17.1 15.4302 17.84 13.8702 17.84 12.1302C17.84 11.2802 17.66 10.4702 17.34 9.74023L12.81 11.7102C12.55 11.8202 12.27 11.8802 12 11.8802C11.73 11.8802 11.45 11.8202 11.19 11.7102L6.66001 9.74023C6.34001 10.4702 6.16001 11.2802 6.16001 12.1302C6.16001 13.8702 6.90001 15.4302 8.08001 16.5102C5.38001 17.2002 4.21001 18.6302 4.21001 20.1202C4.21001 22.0002 6.47001 22.0002 11.99 22.0002C17.51 22.0002 19.77 22.0002 19.77 20.1202C19.77 18.6302 18.6 17.2002 15.9 16.5102H15.92Z" fill="#0A3FFF"/>
<path d="M15.92 16.5102C17.1 15.4302 17.84 13.8702 17.84 12.1302C17.84 11.2802 17.66 10.4702 17.34 9.74023L12.81 11.7102C12.55 11.8202 12.27 11.8802 12 11.8802C11.73 11.8802 11.45 11.8202 11.19 11.7102L6.66001 9.74023C6.34001 10.4702 6.16001 11.2802 6.16001 12.1302C6.16001 13.8702 6.90001 15.4302 8.08001 16.5102C5.38001 17.2002 4.21001 18.6302 4.21001 20.1202C4.21001 22.0002 6.47001 22.0002 11.99 22.0002C17.51 22.0002 19.77 22.0002 19.77 20.1202C19.77 18.6302 18.6 17.2002 15.9 16.5102H15.92Z" fill="black" fill-opacity="0.87"/>
<path d="M20.68 5.72L12.24 2.05C12.16 2.02 12.08 2 12 2C11.92 2 11.84 2.02 11.76 2.05L3.32 5.72C3.03 5.85 3 6.09 3 6.19C3 6.29 3.03 6.54 3.32 6.66L7.42 8.44L11.76 10.33C11.91 10.4 12.08 10.4 12.23 10.33L16.57 8.44L19.49 7.17V8.86C19.49 9.27 19.83 9.61 20.24 9.61C20.65 9.61 20.99 9.27 20.99 8.86V6.18C20.99 6.08 20.96 5.83 20.67 5.71L20.68 5.72Z" fill="#0A3FFF"/>
<path d="M20.68 5.72L12.24 2.05C12.16 2.02 12.08 2 12 2C11.92 2 11.84 2.02 11.76 2.05L3.32 5.72C3.03 5.85 3 6.09 3 6.19C3 6.29 3.03 6.54 3.32 6.66L7.42 8.44L11.76 10.33C11.91 10.4 12.08 10.4 12.23 10.33L16.57 8.44L19.49 7.17V8.86C19.49 9.27 19.83 9.61 20.24 9.61C20.65 9.61 20.99 9.27 20.99 8.86V6.18C20.99 6.08 20.96 5.83 20.67 5.71L20.68 5.72Z" fill="black" fill-opacity="0.87"/>
</g>
<defs>
<clipPath id="clip0_786_21352">
<rect width="18" height="20" fill="white" transform="translate(3 2)"/>
</clipPath>
</defs>
</svg>
