<svg width="24" height="24" viewBox="0 0 24 24" fill="none" xmlns="http://www.w3.org/2000/svg">
<path d="M18.63 9.02L19.65 8.14C20.07 7.78 20.12 7.15 19.76 6.73C19.4 6.31 18.77 6.26 18.35 6.62L17.3 7.52C16.12 6.48 14.64 5.77 13 5.57V4.5H15C15.55 4.5 16 4.05 16 3.5C16 2.95 15.55 2.5 15 2.5H9C8.45 2.5 8 2.95 8 3.5C8 4.05 8.45 4.5 9 4.5H11V5.57C7.05 6.06 4 9.42 4 13.5C4 17.92 7.58 21.5 12 21.5C16.42 21.5 20 17.92 20 13.5C20 11.84 19.49 10.3 18.63 9.02ZM16.02 14.5H11.98C11.43 14.5 10.98 14.05 10.98 13.5V9.46C10.98 8.91 11.43 8.46 11.98 8.46C12.53 8.46 12.98 8.91 12.98 9.46V12.5H16.02C16.57 12.5 17.02 12.95 17.02 13.5C17.02 14.05 16.57 14.5 16.02 14.5Z" fill="#0A3FFF"/>
<path d="M18.63 9.02L19.65 8.14C20.07 7.78 20.12 7.15 19.76 6.73C19.4 6.31 18.77 6.26 18.35 6.62L17.3 7.52C16.12 6.48 14.64 5.77 13 5.57V4.5H15C15.55 4.5 16 4.05 16 3.5C16 2.95 15.55 2.5 15 2.5H9C8.45 2.5 8 2.95 8 3.5C8 4.05 8.45 4.5 9 4.5H11V5.57C7.05 6.06 4 9.42 4 13.5C4 17.92 7.58 21.5 12 21.5C16.42 21.5 20 17.92 20 13.5C20 11.84 19.49 10.3 18.63 9.02ZM16.02 14.5H11.98C11.43 14.5 10.98 14.05 10.98 13.5V9.46C10.98 8.91 11.43 8.46 11.98 8.46C12.53 8.46 12.98 8.91 12.98 9.46V12.5H16.02C16.57 12.5 17.02 12.95 17.02 13.5C17.02 14.05 16.57 14.5 16.02 14.5Z" fill="black" fill-opacity="0.87"/>
</svg>
