<svg width="24" height="24" viewBox="0 0 24 24" fill="none" xmlns="http://www.w3.org/2000/svg">
<path d="M16.36 14C16.44 13.34 16.5 12.68 16.5 12C16.5 11.5124 16.4692 11.0352 16.4222 10.5608C16.3927 10.2623 16.6243 10 16.9243 10H19.3496C19.579 10 19.7805 10.1559 19.827 10.3805C19.9354 10.904 20 11.4455 20 12C20 12.69 19.9 13.36 19.74 14M15.7639 19.0478C15.3622 19.2627 14.9685 18.8249 15.1497 18.4069C15.4338 17.7514 15.6737 17.0717 15.8694 16.3749C15.9312 16.155 16.1297 16 16.3581 16H18.0514C18.4369 16 18.6725 16.4156 18.4441 16.7261C17.7339 17.6913 16.8175 18.4842 15.7639 19.0478ZM14.3956 13.5671C14.366 13.8154 14.1536 14 13.9036 14H10.0899C9.84273 14 9.63164 13.8194 9.60124 13.5741C9.53697 13.0553 9.5 12.5338 9.5 12C9.5 11.4672 9.53683 10.9406 9.60088 10.4248C9.6313 10.1799 9.84217 10 10.089 10H13.9045C14.1541 10 14.3663 10.184 14.396 10.4319C14.4574 10.9454 14.5 11.4696 14.5 12C14.5 12.5314 14.4573 13.0506 14.3956 13.5671ZM12.397 19.356C12.2121 19.6525 11.7879 19.6525 11.603 19.356C11.0715 18.5038 10.6232 17.5927 10.2903 16.6325C10.1814 16.3184 10.4211 16 10.7535 16H13.2465C13.5789 16 13.8186 16.3184 13.7097 16.6325C13.3768 17.5927 12.9285 18.5038 12.397 19.356ZM8.10532 7.63568C8.0412 7.85054 7.84499 8 7.62077 8H5.94278C5.5586 8 5.32274 7.58678 5.54885 7.27619C6.25576 6.30515 7.17353 5.50886 8.23073 4.94619C8.63214 4.73255 9.02491 5.17029 8.84422 5.58757C8.5582 6.24813 8.31493 6.93326 8.10532 7.63568ZM5.55342 16.7253C5.32583 16.4148 5.56153 16 5.94655 16H7.62077C7.84499 16 8.0412 16.1495 8.10532 16.3643C8.31424 17.0644 8.5566 17.7474 8.8414 18.4059C9.02226 18.8241 8.6275 19.2623 8.22594 19.047C7.17453 18.4832 6.26062 17.6904 5.55342 16.7253ZM4.26 14C4.1 13.36 4 12.69 4 12C4 11.4455 4.06457 10.904 4.17297 10.3805C4.21949 10.1559 4.42095 10 4.65039 10H7.07573C7.37573 10 7.60734 10.2623 7.57779 10.5608C7.53084 11.0352 7.5 11.5124 7.5 12C7.5 12.68 7.56 13.34 7.64 14M11.6033 4.63422C11.7879 4.33749 12.2121 4.33749 12.3967 4.63422C12.9284 5.48861 13.3769 6.40508 13.7099 7.36746C13.8186 7.68156 13.5789 8 13.2465 8H10.7535C10.4211 8 10.1814 7.68156 10.2901 7.36746C10.6231 6.40508 11.0716 5.48861 11.6033 4.63422ZM18.4463 7.2746C18.674 7.58514 18.4383 8 18.0533 8H16.3592C16.1303 8 15.9315 7.84434 15.8698 7.62391C15.6751 6.92776 15.4327 6.24623 15.1444 5.58413C14.963 5.16768 15.3545 4.73222 15.7555 4.94548C16.8193 5.51111 17.7378 6.30823 18.4463 7.2746ZM12 2C6.47 2 2 6.5 2 12C2 14.6522 3.05357 17.1957 4.92893 19.0711C5.85752 19.9997 6.95991 20.7362 8.17317 21.2388C9.38642 21.7413 10.6868 22 12 22C14.6522 22 17.1957 20.9464 19.0711 19.0711C20.9464 17.1957 22 14.6522 22 12C22 10.6868 21.7413 9.38642 21.2388 8.17317C20.7362 6.95991 19.9997 5.85752 19.0711 4.92893C18.1425 4.00035 17.0401 3.26375 15.8268 2.7612C14.6136 2.25866 13.3132 2 12 2Z" fill="#0A3FFF"/>
<path d="M16.36 14C16.44 13.34 16.5 12.68 16.5 12C16.5 11.5124 16.4692 11.0352 16.4222 10.5608C16.3927 10.2623 16.6243 10 16.9243 10H19.3496C19.579 10 19.7805 10.1559 19.827 10.3805C19.9354 10.904 20 11.4455 20 12C20 12.69 19.9 13.36 19.74 14M15.7639 19.0478C15.3622 19.2627 14.9685 18.8249 15.1497 18.4069C15.4338 17.7514 15.6737 17.0717 15.8694 16.3749C15.9312 16.155 16.1297 16 16.3581 16H18.0514C18.4369 16 18.6725 16.4156 18.4441 16.7261C17.7339 17.6913 16.8175 18.4842 15.7639 19.0478ZM14.3956 13.5671C14.366 13.8154 14.1536 14 13.9036 14H10.0899C9.84273 14 9.63164 13.8194 9.60124 13.5741C9.53697 13.0553 9.5 12.5338 9.5 12C9.5 11.4672 9.53683 10.9406 9.60088 10.4248C9.6313 10.1799 9.84217 10 10.089 10H13.9045C14.1541 10 14.3663 10.184 14.396 10.4319C14.4574 10.9454 14.5 11.4696 14.5 12C14.5 12.5314 14.4573 13.0506 14.3956 13.5671ZM12.397 19.356C12.2121 19.6525 11.7879 19.6525 11.603 19.356C11.0715 18.5038 10.6232 17.5927 10.2903 16.6325C10.1814 16.3184 10.4211 16 10.7535 16H13.2465C13.5789 16 13.8186 16.3184 13.7097 16.6325C13.3768 17.5927 12.9285 18.5038 12.397 19.356ZM8.10532 7.63568C8.0412 7.85054 7.84499 8 7.62077 8H5.94278C5.5586 8 5.32274 7.58678 5.54885 7.27619C6.25576 6.30515 7.17353 5.50886 8.23073 4.94619C8.63214 4.73255 9.02491 5.17029 8.84422 5.58757C8.5582 6.24813 8.31493 6.93326 8.10532 7.63568ZM5.55342 16.7253C5.32583 16.4148 5.56153 16 5.94655 16H7.62077C7.84499 16 8.0412 16.1495 8.10532 16.3643C8.31424 17.0644 8.5566 17.7474 8.8414 18.4059C9.02226 18.8241 8.6275 19.2623 8.22594 19.047C7.17453 18.4832 6.26062 17.6904 5.55342 16.7253ZM4.26 14C4.1 13.36 4 12.69 4 12C4 11.4455 4.06457 10.904 4.17297 10.3805C4.21949 10.1559 4.42095 10 4.65039 10H7.07573C7.37573 10 7.60734 10.2623 7.57779 10.5608C7.53084 11.0352 7.5 11.5124 7.5 12C7.5 12.68 7.56 13.34 7.64 14M11.6033 4.63422C11.7879 4.33749 12.2121 4.33749 12.3967 4.63422C12.9284 5.48861 13.3769 6.40508 13.7099 7.36746C13.8186 7.68156 13.5789 8 13.2465 8H10.7535C10.4211 8 10.1814 7.68156 10.2901 7.36746C10.6231 6.40508 11.0716 5.48861 11.6033 4.63422ZM18.4463 7.2746C18.674 7.58514 18.4383 8 18.0533 8H16.3592C16.1303 8 15.9315 7.84434 15.8698 7.62391C15.6751 6.92776 15.4327 6.24623 15.1444 5.58413C14.963 5.16768 15.3545 4.73222 15.7555 4.94548C16.8193 5.51111 17.7378 6.30823 18.4463 7.2746ZM12 2C6.47 2 2 6.5 2 12C2 14.6522 3.05357 17.1957 4.92893 19.0711C5.85752 19.9997 6.95991 20.7362 8.17317 21.2388C9.38642 21.7413 10.6868 22 12 22C14.6522 22 17.1957 20.9464 19.0711 19.0711C20.9464 17.1957 22 14.6522 22 12C22 10.6868 21.7413 9.38642 21.2388 8.17317C20.7362 6.95991 19.9997 5.85752 19.0711 4.92893C18.1425 4.00035 17.0401 3.26375 15.8268 2.7612C14.6136 2.25866 13.3132 2 12 2Z" fill="black" fill-opacity="0.87"/>
</svg>
