<svg width="24" height="24" viewBox="0 0 24 24" fill="none" xmlns="http://www.w3.org/2000/svg">
<circle cx="12" cy="12" r="9" fill="#0A3FFF"/>
<circle cx="12" cy="12" r="9" fill="black" fill-opacity="0.87"/>
<path d="M14.2164 8.30566C14.6243 7.89787 15.2858 7.89811 15.6939 8.30566C16.102 8.71374 16.102 9.3761 15.6939 9.78418L13.4771 12.001L15.6939 14.2178C16.102 14.6259 16.102 15.2872 15.6939 15.6953C15.2858 16.1033 14.6244 16.1034 14.2164 15.6953L11.9996 13.4785L9.78277 15.6953C9.37466 16.1031 8.7132 16.1033 8.30523 15.6953C7.89725 15.2873 7.89747 14.6259 8.30523 14.2178L10.521 12L8.30523 9.78418C7.89742 9.3761 7.89729 8.71464 8.30523 8.30664C8.71323 7.89864 9.37467 7.89881 9.78277 8.30664L11.9986 10.5225L14.2164 8.30566Z" fill="white"/>
</svg>
